<svg xmlns="http://www.w3.org/2000/svg" xmlns:se="http://svg-edit.googlecode.com" xmlns:xlink="http://www.w3.org/1999/xlink" xmlns:dc="http://purl.org/dc/elements/1.1/" xmlns:cc="http://creativecommons.org/ns#" xmlns:rdf="http://www.w3.org/1999/02/22-rdf-syntax-ns#" xmlns:inkscape="http://www.inkscape.org/namespaces/inkscape" width="153.22784608420113" height="182.2025314622001" style="">
                                    <title>my vector image</title>
                                    <!-- Created with Vector Paint - http://www.vectorpaint.yaks.com/ https://chrome.google.com/webstore/detail/hnbpdiengicdefcjecjbnjnoifekhgdo -->
                                    <rect id="backgroundrect" width="100%" height="100%" x="0" y="0" fill="#FFFFFF" stroke="none" class="" style=""/>
                                <g style="" class="currentLayer"><title>Layer 1</title><path fill="#67e767" fill-opacity="1" stroke="#67e767" stroke-opacity="1" stroke-width="2" stroke-dasharray="none" stroke-linejoin="round" stroke-linecap="butt" stroke-dashoffset="" fill-rule="nonzero" opacity="1" marker-start="" marker-mid="" marker-end="" d="M529.3544359207153,390.27850818634033 C529.3544359207153,383.09618774435137 535.1721154787264,377.27850818634033 542.3544359207153,377.27850818634033 C549.5367563627043,377.27850818634033 555.3544359207153,383.09618774435137 555.3544359207153,390.27850818634033 C555.3544359207153,397.4608286283293 549.5367563627043,403.27850818634033 542.3544359207153,403.27850818634033 C535.1721154787264,403.27850818634033 529.3544359207153,397.4608286283293 529.3544359207153,390.27850818634033 z" class="" id="svg_75"/><path fill="#67e767" fill-opacity="1" stroke="#67e767" stroke-opacity="1" stroke-width="2" stroke-dasharray="none" stroke-linejoin="round" stroke-linecap="butt" stroke-dashoffset="" fill-rule="nonzero" opacity="1" marker-start="" marker-mid="" marker-end="" d="M549.3544359207153,410.27850818634033 C549.3544359207153,403.09618774435137 555.1721154787264,397.27850818634033 562.3544359207153,397.27850818634033 C569.5367563627043,397.27850818634033 575.3544359207153,403.09618774435137 575.3544359207153,410.27850818634033 C575.3544359207153,417.4608286283293 569.5367563627043,423.27850818634033 562.3544359207153,423.27850818634033 C555.1721154787264,423.27850818634033 549.3544359207153,417.4608286283293 549.3544359207153,410.27850818634033 z" class="" id="svg_76"/><path fill="#0bd50b" fill-opacity="1" stroke="#0bd50b" stroke-opacity="1" stroke-width="2" stroke-dasharray="none" stroke-linejoin="round" stroke-linecap="butt" stroke-dashoffset="" fill-rule="nonzero" opacity="1" marker-start="" marker-mid="" marker-end="" d="M-4.683546066284181,175.24683284759521 C-4.683546066284181,168.3407554995289 2.0291611160362635,162.74683284759521 10.31645393371582,162.74683284759521 C18.603746751395377,162.74683284759521 25.31645393371582,168.3407554995289 25.31645393371582,175.24683284759521 C25.31645393371582,182.15291019566155 18.603746751395377,187.74683284759521 10.31645393371582,187.74683284759521 C2.0291611160362635,187.74683284759521 -4.683546066284181,182.15291019566155 -4.683546066284181,175.24683284759521 z" id="svg_196" class=""/><path fill="#0bd50b" fill-opacity="1" stroke="#0bd50b" stroke-opacity="1" stroke-width="2" stroke-dasharray="none" stroke-linejoin="round" stroke-linecap="butt" stroke-dashoffset="" fill-rule="nonzero" opacity="1" marker-start="" marker-mid="" marker-end="" d="M31.645566940307617,12.841765403747559 C31.645566940307617,5.935688055681226 38.35827412262806,0.3417654037475586 46.64556694030762,0.3417654037475586 C54.932859757987174,0.3417654037475586 61.64556694030762,5.935688055681226 61.64556694030762,12.841765403747559 C61.64556694030762,19.74784275181389 54.932859757987174,25.34176540374756 46.64556694030762,25.34176540374756 C38.35827412262806,25.34176540374756 31.645566940307617,19.74784275181389 31.645566940307617,12.841765403747559 z" class="" id="svg_234"/><path fill="#0bd50b" fill-opacity="1" stroke="#0bd50b" stroke-opacity="1" stroke-width="2" stroke-dasharray="none" stroke-linejoin="round" stroke-linecap="butt" stroke-dashoffset="" fill-rule="nonzero" opacity="1" marker-start="" marker-mid="" marker-end="" d="M122.53164482116699,29.04429531097412 C122.53164482116699,22.138217962907788 129.24435200348745,16.54429531097412 137.531644821167,16.54429531097412 C145.81893763884653,16.54429531097412 152.531644821167,22.138217962907788 152.531644821167,29.04429531097412 C152.531644821167,35.950372659040454 145.81893763884653,41.54429531097412 137.531644821167,41.54429531097412 C129.24435200348745,41.54429531097412 122.53164482116699,35.950372659040454 122.53164482116699,29.04429531097412 z" class="" id="svg_235"/><path fill="#0bd50b" fill-opacity="1" stroke="#0bd50b" stroke-opacity="1" stroke-width="2" stroke-dasharray="none" stroke-linejoin="round" stroke-linecap="butt" stroke-dashoffset="" fill-rule="nonzero" opacity="1" marker-start="" marker-mid="" marker-end="" d="M109.62025165557861,32.58859920501709 C109.62025165557861,25.682521856950757 116.33295883789907,20.08859920501709 124.62025165557861,20.08859920501709 C132.90754447325816,20.08859920501709 139.6202516555786,25.682521856950757 139.6202516555786,32.58859920501709 C139.6202516555786,39.49467655308342 132.90754447325816,45.08859920501709 124.62025165557861,45.08859920501709 C116.33295883789907,45.08859920501709 109.62025165557861,39.49467655308342 109.62025165557861,32.58859920501709 z" class="" id="svg_236"/><path fill="#0bd50b" fill-opacity="1" stroke="#0bd50b" stroke-opacity="1" stroke-width="2" stroke-dasharray="none" stroke-linejoin="round" stroke-linecap="butt" stroke-dashoffset="" fill-rule="nonzero" opacity="1" marker-start="" marker-mid="" marker-end="" d="M44.17720603942871,17.145560264587402 C44.17720603942871,10.23948291652107 50.88991322174917,4.645560264587402 59.17720603942871,4.645560264587402 C67.46449885710825,4.645560264587402 74.17720603942871,10.23948291652107 74.17720603942871,17.145560264587402 C74.17720603942871,24.051637612653735 67.46449885710825,29.645560264587402 59.17720603942871,29.645560264587402 C50.88991322174917,29.645560264587402 44.17720603942871,24.051637612653735 44.17720603942871,17.145560264587402 z" class="" id="svg_237"/><path fill="#0bd50b" fill-opacity="1" stroke="#0bd50b" stroke-opacity="1" stroke-width="2" stroke-dasharray="none" stroke-linejoin="round" stroke-linecap="butt" stroke-dashoffset="" fill-rule="nonzero" opacity="1" marker-start="" marker-mid="" marker-end="" d="M49.24050545692444,31.702521324157715 C49.24050545692444,24.79644397609141 55.95321263924488,19.202521324157715 64.24050545692444,19.202521324157715 C72.527798274604,19.202521324157715 79.24050545692444,24.79644397609141 79.24050545692444,31.702521324157715 C79.24050545692444,38.60859867222405 72.527798274604,44.202521324157715 64.24050545692444,44.202521324157715 C55.95321263924488,44.202521324157715 49.24050545692444,38.60859867222405 49.24050545692444,31.702521324157715 z" class="" id="svg_199"/><path fill="#0bd50b" fill-opacity="1" stroke="#0bd50b" stroke-opacity="1" stroke-width="2" stroke-dasharray="none" stroke-linejoin="round" stroke-linecap="butt" stroke-dashoffset="" fill-rule="nonzero" opacity="1" marker-start="" marker-mid="" marker-end="" d="M97.72151780128479,44.74050045013428 C97.72151780128479,37.83442310206797 104.43422498360523,32.24050045013428 112.72151780128479,32.24050045013428 C121.00881061896435,32.24050045013428 127.72151780128479,37.83442310206797 127.72151780128479,44.74050045013428 C127.72151780128479,51.64657779820061 121.00881061896435,57.24050045013428 112.72151780128479,57.24050045013428 C104.43422498360523,57.24050045013428 97.72151780128479,51.64657779820061 97.72151780128479,44.74050045013428 z" class="" id="svg_229"/><path fill="#0bd50b" fill-opacity="1" stroke="#0bd50b" stroke-opacity="1" stroke-width="2" stroke-dasharray="none" stroke-linejoin="round" stroke-linecap="butt" stroke-dashoffset="" fill-rule="nonzero" opacity="1" marker-start="" marker-mid="" marker-end="" d="M82.91139101982117,49.55062770843506 C82.91139101982117,42.644550360368754 89.62409820214161,37.05062770843506 97.91139101982117,37.05062770843506 C106.19868383750072,37.05062770843506 112.91139101982117,42.644550360368754 112.91139101982117,49.55062770843506 C112.91139101982117,56.45670505650139 106.19868383750072,62.05062770843506 97.91139101982117,62.05062770843506 C89.62409820214161,62.05062770843506 82.91139101982117,56.45670505650139 82.91139101982117,49.55062770843506 z" class="" id="svg_230"/><path fill="#0bd50b" fill-opacity="1" stroke="#0bd50b" stroke-opacity="1" stroke-width="2" stroke-dasharray="none" stroke-linejoin="round" stroke-linecap="butt" stroke-dashoffset="" fill-rule="nonzero" opacity="1" marker-start="" marker-mid="" marker-end="" d="M57.97468018531799,48.03163814544678 C57.97468018531799,41.12556079738047 64.68738736763844,35.53163814544678 72.974680185318,35.53163814544678 C81.26197300299755,35.53163814544678 87.974680185318,41.12556079738047 87.974680185318,48.03163814544678 C87.974680185318,54.93771549351311 81.26197300299755,60.53163814544678 72.974680185318,60.53163814544678 C64.68738736763844,60.53163814544678 57.97468018531799,54.93771549351311 57.97468018531799,48.03163814544678 z" class="" id="svg_231"/><path fill="#41e841" fill-opacity="1" stroke="#67e767" stroke-opacity="1" stroke-width="2" stroke-dasharray="none" stroke-linejoin="round" stroke-linecap="butt" stroke-dashoffset="" fill-rule="nonzero" opacity="1" marker-start="" marker-mid="" marker-end="" d="M42.405019998550415,147.0189905166626 C42.405019998550415,140.11291316859626 49.11772718087087,134.5189905166626 57.405019998550415,134.5189905166626 C65.69231281622996,134.5189905166626 72.40501999855042,140.11291316859626 72.40501999855042,147.0189905166626 C72.40501999855042,153.92506786472893 65.69231281622996,159.5189905166626 57.405019998550415,159.5189905166626 C49.11772718087087,159.5189905166626 42.405019998550415,153.92506786472893 42.405019998550415,147.0189905166626 z" class="" id="svg_228"/><path fill="#41e841" fill-opacity="1" stroke="#67e767" stroke-opacity="1" stroke-width="2" stroke-dasharray="none" stroke-linejoin="round" stroke-linecap="butt" stroke-dashoffset="" fill-rule="nonzero" opacity="1" marker-start="" marker-mid="" marker-end="" d="M47.974661111831665,141.1962080001831 C47.974661111831665,134.29013065211677 54.68736829415212,128.6962080001831 62.974661111831665,128.6962080001831 C71.26195392951121,128.6962080001831 77.97466111183167,134.29013065211677 77.97466111183167,141.1962080001831 C77.97466111183167,148.10228534824944 71.26195392951121,153.6962080001831 62.974661111831665,153.6962080001831 C54.68736829415212,153.6962080001831 47.974661111831665,148.10228534824944 47.974661111831665,141.1962080001831 z" class="" id="svg_218"/><path fill="#41e841" fill-opacity="1" stroke="#67e767" stroke-opacity="1" stroke-width="2" stroke-dasharray="none" stroke-linejoin="round" stroke-linecap="butt" stroke-dashoffset="" fill-rule="nonzero" opacity="1" marker-start="" marker-mid="" marker-end="" d="M57.84807515144348,127.0189905166626 C57.84807515144348,120.11291316859626 64.56078233376394,114.5189905166626 72.84807515144348,114.5189905166626 C81.13536796912302,114.5189905166626 87.84807515144348,120.11291316859626 87.84807515144348,127.0189905166626 C87.84807515144348,133.92506786472893 81.13536796912302,139.5189905166626 72.84807515144348,139.5189905166626 C64.56078233376394,139.5189905166626 57.84807515144348,133.92506786472893 57.84807515144348,127.0189905166626 z" class="" id="svg_219"/><path fill="#41e841" fill-opacity="1" stroke="#67e767" stroke-opacity="1" stroke-width="2" stroke-dasharray="none" stroke-linejoin="round" stroke-linecap="butt" stroke-dashoffset="" fill-rule="nonzero" opacity="1" marker-start="" marker-mid="" marker-end="" d="M67.08858323097229,114.1075963973999 C67.08858323097229,107.20151904933357 73.80129041329275,101.6075963973999 82.08858323097229,101.6075963973999 C90.37587604865183,101.6075963973999 97.08858323097229,107.20151904933357 97.08858323097229,114.1075963973999 C97.08858323097229,121.01367374546624 90.37587604865183,126.6075963973999 82.08858323097229,126.6075963973999 C73.80129041329275,126.6075963973999 67.08858323097229,121.01367374546624 67.08858323097229,114.1075963973999 z" class="" id="svg_220"/><path fill="#41e841" fill-opacity="1" stroke="#67e767" stroke-opacity="1" stroke-width="2" stroke-dasharray="none" stroke-linejoin="round" stroke-linecap="butt" stroke-dashoffset="" fill-rule="nonzero" opacity="1" marker-start="" marker-mid="" marker-end="" d="M74.43034958839417,98.03164577484131 C74.43034958839417,91.12556842677498 81.14305677071462,85.53164577484131 89.43034958839417,85.53164577484131 C97.71764240607371,85.53164577484131 104.43034958839417,91.12556842677498 104.43034958839417,98.03164577484131 C104.43034958839417,104.93772312290764 97.71764240607371,110.53164577484131 89.43034958839417,110.53164577484131 C81.14305677071462,110.53164577484131 74.43034958839417,104.93772312290764 74.43034958839417,98.03164577484131 z" class="" id="svg_221"/><path fill="#41e841" fill-opacity="1" stroke="#67e767" stroke-opacity="1" stroke-width="2" stroke-dasharray="none" stroke-linejoin="round" stroke-linecap="butt" stroke-dashoffset="" fill-rule="nonzero" opacity="1" marker-start="" marker-mid="" marker-end="" d="M77.34172654151917,79.42404842376709 C77.34172654151917,72.51797107570076 84.05443372383962,66.92404842376709 92.34172654151917,66.92404842376709 C100.62901935919871,66.92404842376709 107.34172654151917,72.51797107570076 107.34172654151917,79.42404842376709 C107.34172654151917,86.33012577183342 100.62901935919871,91.92404842376709 92.34172654151917,91.92404842376709 C84.05443372383962,91.92404842376709 77.34172654151917,86.33012577183342 77.34172654151917,79.42404842376709 z" class="" id="svg_222"/><path fill="#41e841" fill-opacity="1" stroke="#67e767" stroke-opacity="1" stroke-width="2" stroke-dasharray="none" stroke-linejoin="round" stroke-linecap="butt" stroke-dashoffset="" fill-rule="nonzero" opacity="1" marker-start="" marker-mid="" marker-end="" d="M37.848074197769165,164.61392498016357 C37.848074197769165,157.70784763209724 44.56078138008962,152.11392498016357 52.848074197769165,152.11392498016357 C61.13536701544871,152.11392498016357 67.84807419776917,157.70784763209724 67.84807419776917,164.61392498016357 C67.84807419776917,171.5200023282299 61.13536701544871,177.11392498016357 52.848074197769165,177.11392498016357 C44.56078138008962,177.11392498016357 37.848074197769165,171.5200023282299 37.848074197769165,164.61392498016357 z" class="" id="svg_223"/><path fill="#41e841" fill-opacity="1" stroke="#67e767" stroke-opacity="1" stroke-width="2" stroke-dasharray="none" stroke-linejoin="round" stroke-linecap="butt" stroke-dashoffset="" fill-rule="nonzero" opacity="1" marker-start="" marker-mid="" marker-end="" d="M43.924001932144165,179.55062007904053 C43.924001932144165,172.6445427309742 50.63670911446462,167.05062007904053 58.924001932144165,167.05062007904053 C67.21129474982371,167.05062007904053 73.92400193214417,172.6445427309742 73.92400193214417,179.55062007904053 C73.92400193214417,186.45669742710686 67.21129474982371,192.05062007904053 58.924001932144165,192.05062007904053 C50.63670911446462,192.05062007904053 43.924001932144165,186.45669742710686 43.924001932144165,179.55062007904053 z" class="" id="svg_224"/><path fill="#41e841" fill-opacity="1" stroke="#67e767" stroke-opacity="1" stroke-width="2" stroke-dasharray="none" stroke-linejoin="round" stroke-linecap="butt" stroke-dashoffset="" fill-rule="nonzero" opacity="1" marker-start="" marker-mid="" marker-end="" d="M25.31642746925354,178.66454219818115 C25.31642746925354,171.75846485011482 32.029134651574,166.16454219818115 40.31642746925354,166.16454219818115 C48.60372028693308,166.16454219818115 55.31642746925354,171.75846485011482 55.31642746925354,178.66454219818115 C55.31642746925354,185.57061954624749 48.60372028693308,191.16454219818115 40.31642746925354,191.16454219818115 C32.029134651574,191.16454219818115 25.31642746925354,185.57061954624749 25.31642746925354,178.66454219818115 z" class="" id="svg_225"/><path fill="#0bd50b" fill-opacity="1" stroke="#0bd50b" stroke-opacity="1" stroke-width="2" stroke-dasharray="none" stroke-linejoin="round" stroke-linecap="butt" stroke-dashoffset="" fill-rule="nonzero" opacity="1" marker-start="" marker-mid="" marker-end="" d="M71.13923072814941,59.2974591255188 C71.13923072814941,52.391381777452494 77.85193791046987,46.7974591255188 86.13923072814941,46.7974591255188 C94.42652354582896,46.7974591255188 101.13923072814941,52.391381777452494 101.13923072814941,59.2974591255188 C101.13923072814941,66.20353647358513 94.42652354582896,71.7974591255188 86.13923072814941,71.7974591255188 C77.85193791046987,71.7974591255188 71.13923072814941,66.20353647358513 71.13923072814941,59.2974591255188 z" class="" id="svg_205"/><path fill="#0bd50b" fill-opacity="1" stroke="#0bd50b" stroke-opacity="1" stroke-width="2" stroke-dasharray="none" stroke-linejoin="round" stroke-linecap="butt" stroke-dashoffset="" fill-rule="nonzero" opacity="1" marker-start="" marker-mid="" marker-end="" d="M71.51897621154785,74.86707973480225 C71.51897621154785,67.96100238673594 78.23168339386831,62.367079734802246 86.51897621154785,62.367079734802246 C94.8062690292274,62.367079734802246 101.51897621154785,67.96100238673594 101.51897621154785,74.86707973480225 C101.51897621154785,81.77315708286858 94.8062690292274,87.36707973480225 86.51897621154785,87.36707973480225 C78.23168339386831,87.36707973480225 71.51897621154785,81.77315708286858 71.51897621154785,74.86707973480225 z" class="" id="svg_206"/><path fill="#0bd50b" fill-opacity="1" stroke="#0bd50b" stroke-opacity="1" stroke-width="2" stroke-dasharray="none" stroke-linejoin="round" stroke-linecap="butt" stroke-dashoffset="" fill-rule="nonzero" opacity="1" marker-start="" marker-mid="" marker-end="" d="M66.83543586730957,92.96834468841553 C66.83543586730957,86.06226734034922 73.54814304963003,80.46834468841553 81.83543586730957,80.46834468841553 C90.12272868498911,80.46834468841553 96.83543586730957,86.06226734034922 96.83543586730957,92.96834468841553 C96.83543586730957,99.87442203648186 90.12272868498911,105.46834468841553 81.83543586730957,105.46834468841553 C73.54814304963003,105.46834468841553 66.83543586730957,99.87442203648186 66.83543586730957,92.96834468841553 z" class="" id="svg_207"/><path fill="#0bd50b" fill-opacity="1" stroke="#0bd50b" stroke-opacity="1" stroke-width="2" stroke-dasharray="none" stroke-linejoin="round" stroke-linecap="butt" stroke-dashoffset="" fill-rule="nonzero" opacity="1" marker-start="" marker-mid="" marker-end="" d="M62.15188789367676,106.63923168182373 C62.15188789367676,99.73315433375743 68.86459507599722,94.13923168182373 77.15188789367676,94.13923168182373 C85.4391807113563,94.13923168182373 92.15188789367676,99.73315433375743 92.15188789367676,106.63923168182373 C92.15188789367676,113.54530902989006 85.4391807113563,119.13923168182373 77.15188789367676,119.13923168182373 C68.86459507599722,119.13923168182373 62.15188789367676,113.54530902989006 62.15188789367676,106.63923168182373 z" class="" id="svg_208"/><path fill="#0bd50b" fill-opacity="1" stroke="#0bd50b" stroke-opacity="1" stroke-width="2" stroke-dasharray="none" stroke-linejoin="round" stroke-linecap="butt" stroke-dashoffset="" fill-rule="nonzero" opacity="1" marker-start="" marker-mid="" marker-end="" d="M53.67086982727051,119.6772050857544 C53.67086982727051,112.77112773768809 60.383577009590965,107.1772050857544 68.67086982727051,107.1772050857544 C76.95816264495005,107.1772050857544 83.67086982727051,112.77112773768809 83.67086982727051,119.6772050857544 C83.67086982727051,126.58328243382073 76.95816264495005,132.1772050857544 68.67086982727051,132.1772050857544 C60.383577009590965,132.1772050857544 53.67086982727051,126.58328243382073 53.67086982727051,119.6772050857544 z" class="" id="svg_209"/><path fill="#0bd50b" fill-opacity="1" stroke="#0bd50b" stroke-opacity="1" stroke-width="2" stroke-dasharray="none" stroke-linejoin="round" stroke-linecap="butt" stroke-dashoffset="" fill-rule="nonzero" opacity="1" marker-start="" marker-mid="" marker-end="" d="M42.025285720825195,130.18353462219238 C42.025285720825195,123.27745727412608 48.73799290314565,117.68353462219238 57.025285720825195,117.68353462219238 C65.31257853850474,117.68353462219238 72.0252857208252,123.27745727412608 72.0252857208252,130.18353462219238 C72.0252857208252,137.08961197025872 65.31257853850474,142.68353462219238 57.025285720825195,142.68353462219238 C48.73799290314565,142.68353462219238 42.025285720825195,137.08961197025872 42.025285720825195,130.18353462219238 z" class="" id="svg_210"/><path fill="#0bd50b" fill-opacity="1" stroke="#0bd50b" stroke-opacity="1" stroke-width="2" stroke-dasharray="none" stroke-linejoin="round" stroke-linecap="butt" stroke-dashoffset="" fill-rule="nonzero" opacity="1" marker-start="" marker-mid="" marker-end="" d="M34.17718696594238,143.8544201850891 C34.17718696594238,136.9483428370228 40.88989414826284,131.3544201850891 49.17718696594238,131.3544201850891 C57.464479783621925,131.3544201850891 64.17718696594238,136.9483428370228 64.17718696594238,143.8544201850891 C64.17718696594238,150.76049753315544 57.464479783621925,156.3544201850891 49.17718696594238,156.3544201850891 C40.88989414826284,156.3544201850891 34.17718696594238,150.76049753315544 34.17718696594238,143.8544201850891 z" class="" id="svg_211"/><path fill="#0bd50b" fill-opacity="1" stroke="#0bd50b" stroke-opacity="1" stroke-width="2" stroke-dasharray="none" stroke-linejoin="round" stroke-linecap="butt" stroke-dashoffset="" fill-rule="nonzero" opacity="1" marker-start="" marker-mid="" marker-end="" d="M20.632890701293945,151.82910299301147 C20.632890701293945,144.92302564494517 27.345597883614403,139.32910299301147 35.632890701293945,139.32910299301147 C43.92018351897349,139.32910299301147 50.632890701293945,144.92302564494517 50.632890701293945,151.82910299301147 C50.632890701293945,158.7351803410778 43.92018351897349,164.32910299301147 35.632890701293945,164.32910299301147 C27.345597883614403,164.32910299301147 20.632890701293945,158.7351803410778 20.632890701293945,151.82910299301147 z" class="" id="svg_212"/><path fill="#0bd50b" fill-opacity="1" stroke="#0bd50b" stroke-opacity="1" stroke-width="2" stroke-dasharray="none" stroke-linejoin="round" stroke-linecap="butt" stroke-dashoffset="" fill-rule="nonzero" opacity="1" marker-start="" marker-mid="" marker-end="" d="M7.72148323059082,161.0696096420288 C7.72148323059082,154.1635322939625 14.434190412911278,148.5696096420288 22.72148323059082,148.5696096420288 C31.008776048270363,148.5696096420288 37.72148323059082,154.1635322939625 37.72148323059082,161.0696096420288 C37.72148323059082,167.97568699009514 31.008776048270363,173.5696096420288 22.72148323059082,173.5696096420288 C14.434190412911278,173.5696096420288 7.72148323059082,167.97568699009514 7.72148323059082,161.0696096420288 z" class="" id="svg_213"/></g></svg>