<svg xmlns="http://www.w3.org/2000/svg" xmlns:se="http://svg-edit.googlecode.com" xmlns:xlink="http://www.w3.org/1999/xlink" xmlns:dc="http://purl.org/dc/elements/1.1/" xmlns:cc="http://creativecommons.org/ns#" xmlns:rdf="http://www.w3.org/1999/02/22-rdf-syntax-ns#" xmlns:inkscape="http://www.inkscape.org/namespaces/inkscape" width="211.67088577033343" height="203.5949370755999">                                    <title>my vector image</title>                                    <!-- Created with Vector Paint - http://www.vectorpaint.yaks.com/ https://chrome.google.com/webstore/detail/hnbpdiengicdefcjecjbnjnoifekhgdo -->                                    <rect id="backgroundrect" width="100%" height="100%" x="0" y="0" fill="#FFFFFF" stroke="none" class="" style=""/>                                <g class="currentLayer" style=""><title>Layer 1</title><path fill="#41e841" fill-opacity="1" stroke="#41e841" stroke-opacity="1" stroke-width="2" stroke-dasharray="none" stroke-linejoin="round" stroke-linecap="butt" stroke-dashoffset="" fill-rule="nonzero" opacity="1" marker-start="" marker-mid="" marker-end="" d="M3.9873377084732056,168.7911295890808 C3.9873377084732056,157.4651627382521 14.50391229410856,148.2911295890808 27.487337708473206,148.2911295890808 C40.47076312283785,148.2911295890808 50.987337708473206,157.4651627382521 50.987337708473206,168.7911295890808 C50.987337708473206,180.11709643990952 40.47076312283785,189.2911295890808 27.487337708473206,189.2911295890808 C14.50391229410856,189.2911295890808 3.9873377084732056,180.11709643990952 3.9873377084732056,168.7911295890808 z" id="svg_1" class=""/><path fill="#41e841" fill-opacity="1" stroke="#41e841" stroke-opacity="1" stroke-width="2" stroke-dasharray="none" stroke-linejoin="round" stroke-linecap="butt" stroke-dashoffset="" fill-rule="nonzero" opacity="1" marker-start="" marker-mid="" marker-end="" d="M17.025309205055237,147.01897382736206 C17.025309205055237,135.69300697653335 27.54188379069059,126.51897382736206 40.52530920505524,126.51897382736206 C53.5087346194199,126.51897382736206 64.02530920505524,135.69300697653335 64.02530920505524,147.01897382736206 C64.02530920505524,158.34494067819077 53.5087346194199,167.51897382736206 40.52530920505524,167.51897382736206 C27.54188379069059,167.51897382736206 17.025309205055237,158.34494067819077 17.025309205055237,147.01897382736206 z" class="" id="svg_4"/><path fill="#41e841" fill-opacity="1" stroke="#41e841" stroke-opacity="1" stroke-width="2" stroke-dasharray="none" stroke-linejoin="round" stroke-linecap="butt" stroke-dashoffset="" fill-rule="nonzero" opacity="1" marker-start="" marker-mid="" marker-end="" d="M50.316431641578674,110.68984937667847 C50.316431641578674,99.36388252584976 60.833006227214014,90.18984937667847 73.81643164157867,90.18984937667847 C86.79985705594333,90.18984937667847 97.31643164157867,99.36388252584976 97.31643164157867,110.68984937667847 C97.31643164157867,122.01581622750717 86.79985705594333,131.18984937667847 73.81643164157867,131.18984937667847 C60.833006227214014,131.18984937667847 50.316431641578674,122.01581622750717 50.316431641578674,110.68984937667847 z" class="" id="svg_5"/><path fill="#41e841" fill-opacity="1" stroke="#41e841" stroke-opacity="1" stroke-width="2" stroke-dasharray="none" stroke-linejoin="round" stroke-linecap="butt" stroke-dashoffset="" fill-rule="nonzero" opacity="1" marker-start="" marker-mid="" marker-end="" d="M79.8101145029068,98.41136884689331 C79.8101145029068,87.0854019960646 90.32668908854214,77.91136884689331 103.3101145029068,77.91136884689331 C116.29353991727146,77.91136884689331 126.8101145029068,87.0854019960646 126.8101145029068,98.41136884689331 C126.8101145029068,109.73733569772202 116.29353991727146,118.91136884689331 103.3101145029068,118.91136884689331 C90.32668908854214,118.91136884689331 79.8101145029068,109.73733569772202 79.8101145029068,98.41136884689331 z" class="" id="svg_10"/><path fill="#41e841" fill-opacity="1" stroke="#41e841" stroke-opacity="1" stroke-width="2" stroke-dasharray="none" stroke-linejoin="round" stroke-linecap="butt" stroke-dashoffset="" fill-rule="nonzero" opacity="1" marker-start="" marker-mid="" marker-end="" d="M107.40505468845367,87.39871168136597 C107.40505468845367,76.07274483053726 117.92162927408901,66.89871168136597 130.90505468845367,66.89871168136597 C143.88848010281833,66.89871168136597 154.40505468845367,76.07274483053726 154.40505468845367,87.39871168136597 C154.40505468845367,98.72467853219467 143.88848010281833,107.89871168136597 130.90505468845367,107.89871168136597 C117.92162927408901,107.89871168136597 107.40505468845367,98.72467853219467 107.40505468845367,87.39871168136597 z" class="" id="svg_11"/><path fill="#41e841" fill-opacity="1" stroke="#41e841" stroke-opacity="1" stroke-width="2" stroke-dasharray="none" stroke-linejoin="round" stroke-linecap="butt" stroke-dashoffset="" fill-rule="nonzero" opacity="1" marker-start="" marker-mid="" marker-end="" d="M133.1012521982193,76.38605070114136 C133.1012521982193,65.06008385031265 143.61782678385464,55.886050701141365 156.6012521982193,55.886050701141365 C169.58467761258396,55.886050701141365 180.1012521982193,65.06008385031265 180.1012521982193,76.38605070114136 C180.1012521982193,87.71201755197006 169.58467761258396,96.88605070114136 156.6012521982193,96.88605070114136 C143.61782678385464,96.88605070114136 133.1012521982193,87.71201755197006 133.1012521982193,76.38605070114136 z" class="" id="svg_12"/><path fill="#41e841" fill-opacity="1" stroke="#41e841" stroke-opacity="1" stroke-width="2" stroke-dasharray="none" stroke-linejoin="round" stroke-linecap="butt" stroke-dashoffset="" fill-rule="nonzero" opacity="1" marker-start="" marker-mid="" marker-end="" d="M149.9367014169693,59.04427671432495 C149.9367014169693,47.718309863496245 160.45327600260464,38.54427671432495 173.4367014169693,38.54427671432495 C186.42012683133396,38.54427671432495 196.9367014169693,47.718309863496245 196.9367014169693,59.04427671432495 C196.9367014169693,70.37024356515366 186.42012683133396,79.54427671432495 173.4367014169693,79.54427671432495 C160.45327600260464,79.54427671432495 149.9367014169693,70.37024356515366 149.9367014169693,59.04427671432495 z" class="" id="svg_13"/><path fill="#41e841" fill-opacity="1" stroke="#41e841" stroke-opacity="1" stroke-width="2" stroke-dasharray="none" stroke-linejoin="round" stroke-linecap="butt" stroke-dashoffset="" fill-rule="nonzero" opacity="1" marker-start="" marker-mid="" marker-end="" d="M164.87340795993805,40.436683177948 C164.87340795993805,29.11071632711929 175.3899825455734,19.936683177947998 188.37340795993805,19.936683177947998 C201.3568333743027,19.936683177947998 211.87340795993805,29.11071632711929 211.87340795993805,40.436683177948 C211.87340795993805,51.762650028776704 201.3568333743027,60.936683177948 188.37340795993805,60.936683177948 C175.3899825455734,60.936683177948 164.87340795993805,51.762650028776704 164.87340795993805,40.436683177948 z" class="" id="svg_14"/><path fill="#009900" fill-opacity="1" stroke="#009900" stroke-opacity="1" stroke-width="2" stroke-dasharray="none" stroke-linejoin="round" stroke-linecap="butt" stroke-dashoffset="" fill-rule="nonzero" opacity="1" marker-start="" marker-mid="" marker-end="" d="M88.67086279392242,82.58857774734497 C88.67086279392242,71.26261089651626 99.18743737955776,62.08857774734497 112.17086279392242,62.08857774734497 C125.15428820828708,62.08857774734497 135.67086279392242,71.26261089651626 135.67086279392242,82.58857774734497 C135.67086279392242,93.91454459817368 125.15428820828708,103.08857774734497 112.17086279392242,103.08857774734497 C99.18743737955776,103.08857774734497 88.67086279392242,93.91454459817368 88.67086279392242,82.58857774734497 z" class="" id="svg_15"/><path fill="#009900" fill-opacity="1" stroke="#009900" stroke-opacity="1" stroke-width="2" stroke-dasharray="none" stroke-linejoin="round" stroke-linecap="butt" stroke-dashoffset="" fill-rule="nonzero" opacity="1" marker-start="" marker-mid="" marker-end="" d="M62.468348145484924,121.57591962814331 C62.468348145484924,110.2499527773146 72.98492273112026,101.07591962814331 85.96834814548492,101.07591962814331 C98.95177355984958,101.07591962814331 109.46834814548492,110.2499527773146 109.46834814548492,121.57591962814331 C109.46834814548492,132.90188647897202 98.95177355984958,142.0759196281433 85.96834814548492,142.0759196281433 C72.98492273112026,142.0759196281433 62.468348145484924,132.90188647897202 62.468348145484924,121.57591962814331 z" class="" id="svg_17"/><path fill="#009900" fill-opacity="1" stroke="#009900" stroke-opacity="1" stroke-width="2" stroke-dasharray="none" stroke-linejoin="round" stroke-linecap="butt" stroke-dashoffset="" fill-rule="nonzero" opacity="1" marker-start="" marker-mid="" marker-end="" d="M141.96200048923492,52.96832227706909 C141.96200048923492,41.642355426240385 152.47857507487026,32.46832227706909 165.46200048923492,32.46832227706909 C178.44542590359958,32.46832227706909 188.96200048923492,41.642355426240385 188.96200048923492,52.96832227706909 C188.96200048923492,64.2942891278978 178.44542590359958,73.46832227706909 165.46200048923492,73.46832227706909 C152.47857507487026,73.46832227706909 141.96200048923492,64.2942891278978 141.96200048923492,52.96832227706909 z" class="" id="svg_18"/><path fill="#009900" fill-opacity="1" stroke="#009900" stroke-opacity="1" stroke-width="2" stroke-dasharray="none" stroke-linejoin="round" stroke-linecap="butt" stroke-dashoffset="" fill-rule="nonzero" opacity="1" marker-start="" marker-mid="" marker-end="" d="M142.34176123142242,100.18351316452026 C142.34176123142242,88.85754631369156 152.85833581705776,79.68351316452026 165.84176123142242,79.68351316452026 C178.82518664578708,79.68351316452026 189.34176123142242,88.85754631369156 189.34176123142242,100.18351316452026 C189.34176123142242,111.50948001534897 178.82518664578708,120.68351316452026 165.84176123142242,120.68351316452026 C152.85833581705776,120.68351316452026 142.34176123142242,111.50948001534897 142.34176123142242,100.18351316452026 z" class="" id="svg_19"/><path fill="#009900" fill-opacity="1" stroke="#009900" stroke-opacity="1" stroke-width="2" stroke-dasharray="none" stroke-linejoin="round" stroke-linecap="butt" stroke-dashoffset="" fill-rule="nonzero" opacity="1" marker-start="" marker-mid="" marker-end="" d="M22.4683176279068,178.4113631248474 C22.4683176279068,167.0853962740187 32.98489221354214,157.9113631248474 45.9683176279068,157.9113631248474 C58.95174304227146,157.9113631248474 69.4683176279068,167.0853962740187 69.4683176279068,178.4113631248474 C69.4683176279068,189.73732997567612 58.95174304227146,198.9113631248474 45.9683176279068,198.9113631248474 C32.98489221354214,198.9113631248474 22.4683176279068,189.73732997567612 22.4683176279068,178.4113631248474 z" class="" id="svg_20"/><path fill="#009900" fill-opacity="1" stroke="#009900" stroke-opacity="1" stroke-width="2" stroke-dasharray="none" stroke-linejoin="round" stroke-linecap="butt" stroke-dashoffset="" fill-rule="nonzero" opacity="1" marker-start="" marker-mid="" marker-end="" d="M-2.9747098684310913,137.1455340385437 C-2.9747098684310913,125.819567187715 7.541864717204248,116.6455340385437 20.52529013156891,116.6455340385437 C33.50871554593357,116.6455340385437 44.02529013156891,125.819567187715 44.02529013156891,137.1455340385437 C44.02529013156891,148.4715008893724 33.50871554593357,157.6455340385437 20.52529013156891,157.6455340385437 C7.541864717204248,157.6455340385437 -2.9747098684310913,148.4715008893724 -2.9747098684310913,137.1455340385437 z" class="" id="svg_23"/><path fill="#41e841" fill-opacity="1" stroke="#41e841" stroke-opacity="1" stroke-width="2" stroke-dasharray="none" stroke-linejoin="round" stroke-linecap="butt" stroke-dashoffset="" fill-rule="nonzero" opacity="1" marker-start="" marker-mid="" marker-end="" d="M29.5569406747818,127.27212476730347 C29.5569406747818,115.94615791647476 40.07351526041714,106.77212476730347 53.0569406747818,106.77212476730347 C66.04036608914646,106.77212476730347 76.5569406747818,115.94615791647476 76.5569406747818,127.27212476730347 C76.5569406747818,138.59809161813217 66.04036608914646,147.77212476730347 53.0569406747818,147.77212476730347 C40.07351526041714,147.77212476730347 29.5569406747818,138.59809161813217 29.5569406747818,127.27212476730347 z" class="" id="svg_16"/><path fill="#41e841" fill-opacity="1" stroke="#41e841" stroke-opacity="1" stroke-width="2" stroke-dasharray="none" stroke-linejoin="round" stroke-linecap="butt" stroke-dashoffset="" fill-rule="nonzero" opacity="1" marker-start="" marker-mid="" marker-end="" d="M145,465.5 C145,454.1740331491713 155.51657458563534,445 168.5,445 C181.48342541436466,445 192,454.1740331491713 192,465.5 C192,476.8259668508287 181.48342541436466,486 168.5,486 C155.51657458563534,486 145,476.8259668508287 145,465.5 z" class="" id="svg_6"/><path fill="#41e841" fill-opacity="1" stroke="#41e841" stroke-opacity="1" stroke-width="2" stroke-dasharray="none" stroke-linejoin="round" stroke-linecap="butt" stroke-dashoffset="" fill-rule="nonzero" opacity="1" marker-start="" marker-mid="" marker-end="" d="M165,485.5 C165,474.1740331491713 175.51657458563534,465 188.5,465 C201.48342541436466,465 212,474.1740331491713 212,485.5 C212,496.8259668508287 201.48342541436466,506 188.5,506 C175.51657458563534,506 165,496.8259668508287 165,485.5 z" class="" id="svg_7"/><path fill="#41e841" fill-opacity="1" stroke="#41e841" stroke-opacity="1" stroke-width="2" stroke-dasharray="none" stroke-linejoin="round" stroke-linecap="butt" stroke-dashoffset="" fill-rule="nonzero" opacity="1" marker-start="" marker-mid="" marker-end="" d="M185,505.5 C185,494.1740331491713 195.51657458563534,485 208.5,485 C221.48342541436466,485 232,494.1740331491713 232,505.5 C232,516.8259668508288 221.48342541436466,526 208.5,526 C195.51657458563534,526 185,516.8259668508288 185,505.5 z" class="" id="svg_8"/><path fill="#41e841" fill-opacity="1" stroke="#41e841" stroke-opacity="1" stroke-width="2" stroke-dasharray="none" stroke-linejoin="round" stroke-linecap="butt" stroke-dashoffset="" fill-rule="nonzero" opacity="1" marker-start="" marker-mid="" marker-end="" d="M-12.088631987571718,186.8923945426941 C-12.088631987571718,175.56642769186533 -1.5720574019363767,166.3923945426941 11.411368012428284,166.3923945426941 C24.394793426792944,166.3923945426941 34.911368012428284,175.56642769186533 34.911368012428284,186.8923945426941 C34.911368012428284,198.21836139352285 24.394793426792944,207.3923945426941 11.411368012428284,207.3923945426941 C-1.5720574019363767,207.3923945426941 -12.088631987571718,198.21836139352285 -12.088631987571718,186.8923945426941 z" class="" id="svg_9"/></g></svg>