<svg xmlns="http://www.w3.org/2000/svg" xmlns:se="http://svg-edit.googlecode.com" xmlns:xlink="http://www.w3.org/1999/xlink" xmlns:dc="http://purl.org/dc/elements/1.1/" xmlns:cc="http://creativecommons.org/ns#" xmlns:rdf="http://www.w3.org/1999/02/22-rdf-syntax-ns#" xmlns:inkscape="http://www.inkscape.org/namespaces/inkscape" width="42.64556149087076" height="210.59493707559983" style="">                                    <title>my vector image</title>                                    <!-- Created with Vector Paint - http://www.vectorpaint.yaks.com/ https://chrome.google.com/webstore/detail/hnbpdiengicdefcjecjbnjnoifekhgdo -->                                    <rect id="backgroundrect" width="100%" height="100%" x="0" y="0" fill="#FFFFFF" stroke="none" class="" style=""/>                                <g class="currentLayer" style=""><title>Layer 1</title><path fill="#41e841" fill-opacity="1" stroke="#41e841" stroke-opacity="1" stroke-width="2" stroke-dasharray="none" stroke-linejoin="round" stroke-linecap="butt" stroke-dashoffset="" fill-rule="nonzero" opacity="1" marker-start="" marker-mid="" marker-end="" d="M145,465.5 C145,454.1740331491713 155.51657458563534,445 168.5,445 C181.48342541436466,445 192,454.1740331491713 192,465.5 C192,476.8259668508287 181.48342541436466,486 168.5,486 C155.51657458563534,486 145,476.8259668508287 145,465.5 z" class="" id="svg_6"/><path fill="#41e841" fill-opacity="1" stroke="#41e841" stroke-opacity="1" stroke-width="2" stroke-dasharray="none" stroke-linejoin="round" stroke-linecap="butt" stroke-dashoffset="" fill-rule="nonzero" opacity="1" marker-start="" marker-mid="" marker-end="" d="M165,485.5 C165,474.1740331491713 175.51657458563534,465 188.5,465 C201.48342541436466,465 212,474.1740331491713 212,485.5 C212,496.8259668508287 201.48342541436466,506 188.5,506 C175.51657458563534,506 165,496.8259668508287 165,485.5 z" class="" id="svg_7"/><path fill="#41e841" fill-opacity="1" stroke="#41e841" stroke-opacity="1" stroke-width="2" stroke-dasharray="none" stroke-linejoin="round" stroke-linecap="butt" stroke-dashoffset="" fill-rule="nonzero" opacity="1" marker-start="" marker-mid="" marker-end="" d="M185,505.5 C185,494.1740331491713 195.51657458563534,485 208.5,485 C221.48342541436466,485 232,494.1740331491713 232,505.5 C232,516.8259668508288 221.48342541436466,526 208.5,526 C195.51657458563534,526 185,516.8259668508288 185,505.5 z" class="" id="svg_8"/><path fill="#009900" fill-opacity="1" stroke="#009900" stroke-opacity="1" stroke-width="2" stroke-dasharray="none" stroke-linejoin="round" stroke-linecap="butt" stroke-dashoffset="" fill-rule="nonzero" opacity="1" marker-start="" marker-mid="" marker-end="" d="M2.645568370819092,177.39873504638672 C2.645568370819092,168.2827129469392 11.819601519990364,160.89873504638672 23.145568370819092,160.89873504638672 C34.47153522164782,160.89873504638672 43.64556837081909,168.2827129469392 43.64556837081909,177.39873504638672 C43.64556837081909,186.51475714583424 34.47153522164782,193.89873504638672 23.145568370819092,193.89873504638672 C11.819601519990364,193.89873504638672 2.645568370819092,186.51475714583424 2.645568370819092,177.39873504638672 z" id="svg_24" class=""/><path fill="#009900" fill-opacity="1" stroke="#009900" stroke-opacity="1" stroke-width="2" stroke-dasharray="none" stroke-linejoin="round" stroke-linecap="butt" stroke-dashoffset="" fill-rule="nonzero" opacity="1" marker-start="" marker-mid="" marker-end="" d="M9.354440689086914,18.917713165283203 C9.354440689086914,9.801691065835684 18.52847383825818,2.417713165283203 29.854440689086914,2.417713165283203 C41.18040753991562,2.417713165283203 50.354440689086914,9.801691065835684 50.354440689086914,18.917713165283203 C50.354440689086914,28.033735264730723 41.18040753991562,35.4177131652832 29.854440689086914,35.4177131652832 C18.52847383825818,35.4177131652832 9.354440689086914,28.033735264730723 9.354440689086914,18.917713165283203 z" class="" id="svg_27"/><path fill="#41e841" fill-opacity="1" stroke="#41e841" stroke-opacity="1" stroke-width="2" stroke-dasharray="none" stroke-linejoin="round" stroke-linecap="butt" stroke-dashoffset="" fill-rule="nonzero" opacity="1" marker-start="" marker-mid="" marker-end="" d="M-12.417715072631836,197.77848434448242 C-12.417715072631836,188.6624622450349 -3.2436819234605423,181.27848434448242 8.082284927368164,181.27848434448242 C19.408251778196927,181.27848434448242 28.582284927368164,188.6624622450349 28.582284927368164,197.77848434448242 C28.582284927368164,206.89450644392994 19.408251778196927,214.27848434448242 8.082284927368164,214.27848434448242 C-3.2436819234605423,214.27848434448242 -12.417715072631836,206.89450644392994 -12.417715072631836,197.77848434448242 z" class="" id="svg_28"/><path fill="#41e841" fill-opacity="1" stroke="#41e841" stroke-opacity="1" stroke-width="2" stroke-dasharray="none" stroke-linejoin="round" stroke-linecap="butt" stroke-dashoffset="" fill-rule="nonzero" opacity="1" marker-start="" marker-mid="" marker-end="" d="M-22.797475814819336,166.51265811920166 C-22.797475814819336,157.39663601975414 -13.623442665648042,150.01265811920166 -2.297475814819336,150.01265811920166 C9.028491036009427,150.01265811920166 18.202524185180664,157.39663601975414 18.202524185180664,166.51265811920166 C18.202524185180664,175.62868021864918 9.028491036009427,183.01265811920166 -2.297475814819336,183.01265811920166 C-13.623442665648042,183.01265811920166 -22.797475814819336,175.62868021864918 -22.797475814819336,166.51265811920166 z" class="" id="svg_35"/><path fill="#41e841" fill-opacity="1" stroke="#41e841" stroke-opacity="1" stroke-width="2" stroke-dasharray="none" stroke-linejoin="round" stroke-linecap="butt" stroke-dashoffset="" fill-rule="nonzero" opacity="1" marker-start="" marker-mid="" marker-end="" d="M9.860757827758789,147.90505981445312 C9.860757827758789,138.7890377150056 19.034790976930083,131.40505981445312 30.36075782775879,131.40505981445312 C41.68672467858755,131.40505981445312 50.86075782775879,138.7890377150056 50.86075782775879,147.90505981445312 C50.86075782775879,157.02108191390064 41.68672467858755,164.40505981445312 30.36075782775879,164.40505981445312 C19.034790976930083,164.40505981445312 9.860757827758789,157.02108191390064 9.860757827758789,147.90505981445312 z" class="" id="svg_36"/><path fill="#41e841" fill-opacity="1" stroke="#41e841" stroke-opacity="1" stroke-width="2" stroke-dasharray="none" stroke-linejoin="round" stroke-linecap="butt" stroke-dashoffset="" fill-rule="nonzero" opacity="1" marker-start="" marker-mid="" marker-end="" d="M-13.810140609741211,121.7025260925293 C-13.810140609741211,112.58650399308178 -4.636107460569917,105.2025260925293 6.689859390258789,105.2025260925293 C18.015826241087552,105.2025260925293 27.18985939025879,112.58650399308178 27.18985939025879,121.7025260925293 C27.18985939025879,130.81854819197682 18.015826241087552,138.2025260925293 6.689859390258789,138.2025260925293 C-4.636107460569917,138.2025260925293 -13.810140609741211,130.81854819197682 -13.810140609741211,121.7025260925293 z" class="" id="svg_37"/><path fill="#41e841" fill-opacity="1" stroke="#41e841" stroke-opacity="1" stroke-width="2" stroke-dasharray="none" stroke-linejoin="round" stroke-linecap="butt" stroke-dashoffset="" fill-rule="nonzero" opacity="1" marker-start="" marker-mid="" marker-end="" d="M-13.430379867553711,46.13290023803711 C-13.430379867553711,37.01687813858959 -4.256346718382417,29.63290023803711 7.069620132446289,29.63290023803711 C18.395586983275052,29.63290023803711 27.56962013244629,37.01687813858959 27.56962013244629,46.13290023803711 C27.56962013244629,55.24892233748463 18.395586983275052,62.63290023803711 7.069620132446289,62.63290023803711 C-4.256346718382417,62.63290023803711 -13.430379867553711,55.24892233748463 -13.430379867553711,46.13290023803711 z" class="" id="svg_38"/><path fill="#41e841" fill-opacity="1" stroke="#41e841" stroke-opacity="1" stroke-width="2" stroke-dasharray="none" stroke-linejoin="round" stroke-linecap="butt" stroke-dashoffset="" fill-rule="nonzero" opacity="1" marker-start="" marker-mid="" marker-end="" d="M15.810128927230835,120.31012344360352 C15.810128927230835,111.19410134415602 24.98416207640213,103.81012344360352 36.310128927230835,103.81012344360352 C47.6360957780596,103.81012344360352 56.810128927230835,111.19410134415602 56.810128927230835,120.31012344360352 C56.810128927230835,129.426145543051 47.6360957780596,136.81012344360352 36.310128927230835,136.81012344360352 C24.98416207640213,136.81012344360352 15.810128927230835,129.426145543051 15.810128927230835,120.31012344360352 z" class="" id="svg_41"/><path fill="#41e841" fill-opacity="1" stroke="#41e841" stroke-opacity="1" stroke-width="2" stroke-dasharray="none" stroke-linejoin="round" stroke-linecap="butt" stroke-dashoffset="" fill-rule="nonzero" opacity="1" marker-start="" marker-mid="" marker-end="" d="M13.658227682113647,70.68985366821289 C13.658227682113647,61.5738315687654 22.83226083128494,54.18985366821289 34.15822768211365,54.18985366821289 C45.48419453294241,54.18985366821289 54.65822768211365,61.5738315687654 54.65822768211365,70.68985366821289 C54.65822768211365,79.80587576766038 45.48419453294241,87.18985366821289 34.15822768211365,87.18985366821289 C22.83226083128494,87.18985366821289 13.658227682113647,79.80587576766038 13.658227682113647,70.68985366821289 z" class="" id="svg_42"/><path fill="#41e841" fill-opacity="1" stroke="#41e841" stroke-opacity="1" stroke-width="2" stroke-dasharray="none" stroke-linejoin="round" stroke-linecap="butt" stroke-dashoffset="" fill-rule="nonzero" opacity="1" marker-start="" marker-mid="" marker-end="" d="M7.7088563442230225,47.65187740325928 C7.7088563442230225,38.535855303811786 16.882889493394316,31.151877403259277 28.208856344223022,31.151877403259277 C39.534823195051786,31.151877403259277 48.70885634422302,38.535855303811786 48.70885634422302,47.65187740325928 C48.70885634422302,56.76789950270677 39.534823195051786,64.15187740325928 28.208856344223022,64.15187740325928 C16.882889493394316,64.15187740325928 7.7088563442230225,56.76789950270677 7.7088563442230225,47.65187740325928 z" class="" id="svg_43"/><path fill="#41e841" fill-opacity="1" stroke="#41e841" stroke-opacity="1" stroke-width="2" stroke-dasharray="none" stroke-linejoin="round" stroke-linecap="butt" stroke-dashoffset="" fill-rule="nonzero" opacity="1" marker-start="" marker-mid="" marker-end="" d="M10.620263814926147,203.72784042358398 C10.620263814926147,194.6118183241365 19.79429696409744,187.22784042358398 31.120263814926147,187.22784042358398 C42.44623066575491,187.22784042358398 51.62026381492615,194.6118183241365 51.62026381492615,203.72784042358398 C51.62026381492615,212.84386252303148 42.44623066575491,220.22784042358398 31.120263814926147,220.22784042358398 C19.79429696409744,220.22784042358398 10.620263814926147,212.84386252303148 10.620263814926147,203.72784042358398 z" class="" id="svg_44"/><path fill="#41e841" fill-opacity="1" stroke="#41e841" stroke-opacity="1" stroke-width="2" stroke-dasharray="none" stroke-linejoin="round" stroke-linecap="butt" stroke-dashoffset="" fill-rule="nonzero" opacity="1" marker-start="" marker-mid="" marker-end="" d="M-7.3544371128082275,6.006305694580078 C-7.3544371128082275,-3.109716404867413 1.819596036363066,-10.493694305419922 13.145562887191772,-10.493694305419922 C24.471529738020536,-10.493694305419922 33.64556288719177,-3.109716404867413 33.64556288719177,6.006305694580078 C33.64556288719177,15.12232779402757 24.471529738020536,22.506305694580078 13.145562887191772,22.506305694580078 C1.819596036363066,22.506305694580078 -7.3544371128082275,15.12232779402757 -7.3544371128082275,6.006305694580078 z" class="" id="svg_45"/><path fill="#41e841" fill-opacity="1" stroke="#41e841" stroke-opacity="1" stroke-width="2" stroke-dasharray="none" stroke-linejoin="round" stroke-linecap="butt" stroke-dashoffset="" fill-rule="nonzero" opacity="1" marker-start="" marker-mid="" marker-end="" d="M2.5189759731292725,88.03162288665771 C2.5189759731292725,78.91560078721022 11.693009122300566,71.53162288665771 23.018975973129272,71.53162288665771 C34.344942823958036,71.53162288665771 43.51897597312927,78.91560078721022 43.51897597312927,88.03162288665771 C43.51897597312927,97.1476449861052 34.344942823958036,104.53162288665771 23.018975973129272,104.53162288665771 C11.693009122300566,104.53162288665771 2.5189759731292725,97.1476449861052 2.5189759731292725,88.03162288665771 z" class="" id="svg_46"/><path fill="#009900" fill-opacity="1" stroke="#009900" stroke-opacity="1" stroke-width="2" stroke-dasharray="none" stroke-linejoin="round" stroke-linecap="butt" stroke-dashoffset="" fill-rule="nonzero" opacity="1" marker-start="" marker-mid="" marker-end="" d="M16.443056106567383,133.60126447677612 C16.443056106567383,124.4852423773286 25.61708925573862,117.10126447677612 36.94305610656738,117.10126447677612 C48.269022957396146,117.10126447677612 57.44305610656738,124.4852423773286 57.44305610656738,133.60126447677612 C57.44305610656738,142.71728657622364 48.269022957396146,150.10126447677612 36.94305610656738,150.10126447677612 C25.61708925573862,150.10126447677612 16.443056106567383,142.71728657622364 16.443056106567383,133.60126447677612 z" class="" id="svg_29"/><path fill="#009900" fill-opacity="1" stroke="#009900" stroke-opacity="1" stroke-width="2" stroke-dasharray="none" stroke-linejoin="round" stroke-linecap="butt" stroke-dashoffset="" fill-rule="nonzero" opacity="1" marker-start="" marker-mid="" marker-end="" d="M-8.493673324584961,87.77846908569336 C-8.493673324584961,78.66244698624587 0.6803598245863043,71.27846908569336 12.006326675415039,71.27846908569336 C23.332293526243774,71.27846908569336 32.50632667541504,78.66244698624587 32.50632667541504,87.77846908569336 C32.50632667541504,96.89449118514085 23.332293526243774,104.27846908569336 12.006326675415039,104.27846908569336 C0.6803598245863043,104.27846908569336 -8.493673324584961,96.89449118514085 -8.493673324584961,87.77846908569336 z" class="" id="svg_30"/><path fill="#009900" fill-opacity="1" stroke="#009900" stroke-opacity="1" stroke-width="2" stroke-dasharray="none" stroke-linejoin="round" stroke-linecap="butt" stroke-dashoffset="" fill-rule="nonzero" opacity="1" marker-start="" marker-mid="" marker-end="" d="M-6.215192794799805,24.23415756225586 C-6.215192794799805,15.118135462808368 2.9588403543714605,7.734157562255859 14.284807205200195,7.734157562255859 C25.61077405602893,7.734157562255859 34.784807205200195,15.118135462808368 34.784807205200195,24.23415756225586 C34.784807205200195,33.35017966170335 25.61077405602893,40.73415756225586 14.284807205200195,40.73415756225586 C2.9588403543714605,40.73415756225586 -6.215192794799805,33.35017966170335 -6.215192794799805,24.23415756225586 z" class="" id="svg_31"/><path fill="#009900" fill-opacity="1" stroke="#009900" stroke-opacity="1" stroke-width="2" stroke-dasharray="none" stroke-linejoin="round" stroke-linecap="butt" stroke-dashoffset="" fill-rule="nonzero" opacity="1" marker-start="" marker-mid="" marker-end="" d="M-5.202535629272461,63.85441207885742 C-5.202535629272461,54.73838997940993 3.9714975198988043,47.35441207885742 15.297464370727539,47.35441207885742 C26.623431221556274,47.35441207885742 35.79746437072754,54.73838997940993 35.79746437072754,63.85441207885742 C35.79746437072754,72.97043417830491 26.623431221556274,80.35441207885742 15.297464370727539,80.35441207885742 C3.9714975198988043,80.35441207885742 -5.202535629272461,72.97043417830491 -5.202535629272461,63.85441207885742 z" class="" id="svg_32"/><path fill="#009900" fill-opacity="1" stroke="#009900" stroke-opacity="1" stroke-width="2" stroke-dasharray="none" stroke-linejoin="round" stroke-linecap="butt" stroke-dashoffset="" fill-rule="nonzero" opacity="1" marker-start="" marker-mid="" marker-end="" d="M15.430375814437866,92.08226013183594 C15.430375814437866,82.96623803238845 24.60440896360913,75.58226013183594 35.930375814437866,75.58226013183594 C47.2563426652666,75.58226013183594 56.430375814437866,82.96623803238845 56.430375814437866,92.08226013183594 C56.430375814437866,101.19828223128343 47.2563426652666,108.58226013183594 35.930375814437866,108.58226013183594 C24.60440896360913,108.58226013183594 15.430375814437866,101.19828223128343 15.430375814437866,92.08226013183594 z" class="" id="svg_47"/><path fill="#009900" fill-opacity="1" stroke="#009900" stroke-opacity="1" stroke-width="2" stroke-dasharray="none" stroke-linejoin="round" stroke-linecap="butt" stroke-dashoffset="" fill-rule="nonzero" opacity="1" marker-start="" marker-mid="" marker-end="" d="M-2.924062728881836,107.27213668823242 C-2.924062728881836,98.15611458878493 6.249970420289429,90.77213668823242 17.575937271118164,90.77213668823242 C28.9019041219469,90.77213668823242 38.075937271118164,98.15611458878493 38.075937271118164,107.27213668823242 C38.075937271118164,116.38815878767991 28.9019041219469,123.77213668823242 17.575937271118164,123.77213668823242 C6.249970420289429,123.77213668823242 -2.924062728881836,116.38815878767991 -2.924062728881836,107.27213668823242 z" class="" id="svg_33"/><path fill="#009900" fill-opacity="1" stroke="#009900" stroke-opacity="1" stroke-width="2" stroke-dasharray="none" stroke-linejoin="round" stroke-linecap="butt" stroke-dashoffset="" fill-rule="nonzero" opacity="1" marker-start="" marker-mid="" marker-end="" d="M-12.670888900756836,148.1582145690918 C-12.670888900756836,139.0421924696443 -3.4968557515855707,131.6582145690918 7.829111099243164,131.6582145690918 C19.1550779500719,131.6582145690918 28.329111099243164,139.0421924696443 28.329111099243164,148.1582145690918 C28.329111099243164,157.2742366685393 19.1550779500719,164.6582145690918 7.829111099243164,164.6582145690918 C-3.4968557515855707,164.6582145690918 -12.670888900756836,157.2742366685393 -12.670888900756836,148.1582145690918 z" class="" id="svg_34"/></g></svg>