<svg xmlns="http://www.w3.org/2000/svg" xmlns:se="http://svg-edit.googlecode.com" xmlns:xlink="http://www.w3.org/1999/xlink" xmlns:dc="http://purl.org/dc/elements/1.1/" xmlns:cc="http://creativecommons.org/ns#" xmlns:rdf="http://www.w3.org/1999/02/22-rdf-syntax-ns#" xmlns:inkscape="http://www.inkscape.org/namespaces/inkscape" width="126.8734172325336" height="159" style="">
                                    <title>my vector image</title>
                                    <!-- Created with Vector Paint - http://www.vectorpaint.yaks.com/ https://chrome.google.com/webstore/detail/hnbpdiengicdefcjecjbnjnoifekhgdo -->
                                    <rect id="backgroundrect" width="100%" height="100%" x="0" y="0" fill="#FFFFFF" stroke="none" class="" style=""/>
                                <g style="" class="currentLayer"><title>Layer 1</title><path fill="#1aeb1a" fill-opacity="1" stroke="#1aeb1a" stroke-opacity="1" stroke-width="2" stroke-dasharray="none" stroke-linejoin="round" stroke-linecap="butt" stroke-dashoffset="" fill-rule="nonzero" opacity="1" marker-start="" marker-mid="" marker-end="" d="M23.53164577484131,145.21519446372986 C23.53164577484131,138.0328740217409 29.34932533285236,132.21519446372986 36.53164577484131,132.21519446372986 C43.71396621683026,132.21519446372986 49.53164577484131,138.0328740217409 49.53164577484131,145.21519446372986 C49.53164577484131,152.39751490571882 43.71396621683026,158.21519446372986 36.53164577484131,158.21519446372986 C29.34932533285236,158.21519446372986 23.53164577484131,152.39751490571882 23.53164577484131,145.21519446372986 z" id="svg_39" class=""/><path fill="#1aeb1a" fill-opacity="1" stroke="#1aeb1a" stroke-opacity="1" stroke-width="2" stroke-dasharray="none" stroke-linejoin="round" stroke-linecap="butt" stroke-dashoffset="" fill-rule="nonzero" opacity="1" marker-start="" marker-mid="" marker-end="" d="M-7.101269483566284,51.92404913902283 C-7.101269483566284,44.74172869703388 -1.2835899255552334,38.92404913902283 5.898730516433716,38.92404913902283 C13.081050958422665,38.92404913902283 18.898730516433716,44.74172869703388 18.898730516433716,51.92404913902283 C18.898730516433716,59.10636958101179 13.081050958422665,64.92404913902283 5.898730516433716,64.92404913902283 C-1.2835899255552334,64.92404913902283 -7.101269483566284,59.10636958101179 -7.101269483566284,51.92404913902283 z" class="" id="svg_42"/><path fill="#1aeb1a" fill-opacity="1" stroke="#1aeb1a" stroke-opacity="1" stroke-width="2" stroke-dasharray="none" stroke-linejoin="round" stroke-linecap="butt" stroke-dashoffset="" fill-rule="nonzero" opacity="1" marker-start="" marker-mid="" marker-end="" d="M39.481011629104614,112.43038153648376 C39.481011629104614,105.2480610944948 45.298691187115665,99.43038153648376 52.481011629104614,99.43038153648376 C59.66333207109356,99.43038153648376 65.48101162910461,105.2480610944948 65.48101162910461,112.43038153648376 C65.48101162910461,119.61270197847273 59.66333207109356,125.43038153648376 52.481011629104614,125.43038153648376 C45.298691187115665,125.43038153648376 39.481011629104614,119.61270197847273 39.481011629104614,112.43038153648376 z" class="" id="svg_43"/><path fill="#1aeb1a" fill-opacity="1" stroke="#1aeb1a" stroke-opacity="1" stroke-width="2" stroke-dasharray="none" stroke-linejoin="round" stroke-linecap="butt" stroke-dashoffset="" fill-rule="nonzero" opacity="1" marker-start="" marker-mid="" marker-end="" d="M51.886075258255005,136.86075568199158 C51.886075258255005,129.6784352400026 57.703754816266056,123.86075568199158 64.886075258255,123.86075568199158 C72.06839570024395,123.86075568199158 77.886075258255,129.6784352400026 77.886075258255,136.86075568199158 C77.886075258255,144.04307612398054 72.06839570024395,149.86075568199158 64.886075258255,149.86075568199158 C57.703754816266056,149.86075568199158 51.886075258255005,144.04307612398054 51.886075258255005,136.86075568199158 z" class="" id="svg_44"/><path fill="#1aeb1a" fill-opacity="1" stroke="#1aeb1a" stroke-opacity="1" stroke-width="2" stroke-dasharray="none" stroke-linejoin="round" stroke-linecap="butt" stroke-dashoffset="" fill-rule="nonzero" opacity="1" marker-start="" marker-mid="" marker-end="" d="M0.9999916553497316,77.746830701828 C0.9999916553497316,70.56451025983904 6.817671213360782,64.746830701828 13.999991655349731,64.746830701828 C21.18231209733868,64.746830701828 26.99999165534973,70.56451025983904 26.99999165534973,77.746830701828 C26.99999165534973,84.92915114381697 21.18231209733868,90.746830701828 13.999991655349731,90.746830701828 C6.817671213360782,90.746830701828 0.9999916553497316,84.92915114381697 0.9999916553497316,77.746830701828 z" class="" id="svg_45"/><path fill="#1aeb1a" fill-opacity="1" stroke="#1aeb1a" stroke-opacity="1" stroke-width="2" stroke-dasharray="none" stroke-linejoin="round" stroke-linecap="butt" stroke-dashoffset="" fill-rule="nonzero" opacity="1" marker-start="" marker-mid="" marker-end="" d="M36.82278370857239,79.39239954948425 C36.82278370857239,72.21007910749529 42.64046326658344,66.39239954948425 49.82278370857239,66.39239954948425 C57.00510415056134,66.39239954948425 62.82278370857239,72.21007910749529 62.82278370857239,79.39239954948425 C62.82278370857239,86.57471999147322 57.00510415056134,92.39239954948425 49.82278370857239,92.39239954948425 C42.64046326658344,92.39239954948425 36.82278370857239,86.57471999147322 36.82278370857239,79.39239954948425 z" class="" id="svg_49"/><path fill="#1aeb1a" fill-opacity="1" stroke="#1aeb1a" stroke-opacity="1" stroke-width="2" stroke-dasharray="none" stroke-linejoin="round" stroke-linecap="butt" stroke-dashoffset="" fill-rule="nonzero" opacity="1" marker-start="" marker-mid="" marker-end="" d="M1.1265785694122314,24.708860397338867 C1.1265785694122314,17.526539955349904 6.944258127423282,11.708860397338867 14.126578569412231,11.708860397338867 C21.308899011401195,11.708860397338867 27.12657856941223,17.526539955349904 27.12657856941223,24.708860397338867 C27.12657856941223,31.89118083932783 21.308899011401195,37.70886039733887 14.126578569412231,37.70886039733887 C6.944258127423282,37.70886039733887 1.1265785694122314,31.89118083932783 1.1265785694122314,24.708860397338867 z" class="" id="svg_50"/><path fill="#1aeb1a" fill-opacity="1" stroke="#1aeb1a" stroke-opacity="1" stroke-width="2" stroke-dasharray="none" stroke-linejoin="round" stroke-linecap="butt" stroke-dashoffset="" fill-rule="nonzero" opacity="1" marker-start="" marker-mid="" marker-end="" d="M71.12658619880676,126.35444331169128 C71.12658619880676,119.17212286970232 76.9442657568178,113.35444331169128 84.12658619880676,113.35444331169128 C91.30890664079573,113.35444331169128 97.12658619880676,119.17212286970232 97.12658619880676,126.35444331169128 C97.12658619880676,133.53676375368025 91.30890664079573,139.35444331169128 84.12658619880676,139.35444331169128 C76.9442657568178,139.35444331169128 71.12658619880676,133.53676375368025 71.12658619880676,126.35444331169128 z" class="" id="svg_51"/><path fill="#1aeb1a" fill-opacity="1" stroke="#1aeb1a" stroke-opacity="1" stroke-width="2" stroke-dasharray="none" stroke-linejoin="round" stroke-linecap="butt" stroke-dashoffset="" fill-rule="nonzero" opacity="1" marker-start="" marker-mid="" marker-end="" d="M101.253169298172,154.58229517936707 C101.253169298172,147.3999747373781 107.07084885618303,141.58229517936707 114.253169298172,141.58229517936707 C121.43548974016096,141.58229517936707 127.253169298172,147.3999747373781 127.253169298172,154.58229517936707 C127.253169298172,161.76461562135603 121.43548974016096,167.58229517936707 114.253169298172,167.58229517936707 C107.07084885618303,167.58229517936707 101.253169298172,161.76461562135603 101.253169298172,154.58229517936707 z" class="" id="svg_52"/><path fill="#009900" fill-opacity="1" stroke="#009900" stroke-opacity="1" stroke-width="2" stroke-dasharray="none" stroke-linejoin="round" stroke-linecap="butt" stroke-dashoffset="" fill-rule="nonzero" opacity="1" marker-start="" marker-mid="" marker-end="" d="M55.430381059646606,148.6329276561737 C55.430381059646606,141.45060721418474 61.24806061765764,135.6329276561737 68.4303810596466,135.6329276561737 C75.61270150163557,135.6329276561737 81.4303810596466,141.45060721418474 81.4303810596466,148.6329276561737 C81.4303810596466,155.81524809816267 75.61270150163557,161.6329276561737 68.4303810596466,161.6329276561737 C61.24806061765764,161.6329276561737 55.430381059646606,155.81524809816267 55.430381059646606,148.6329276561737 z" class="" id="svg_53"/><path fill="#009900" fill-opacity="1" stroke="#009900" stroke-opacity="1" stroke-width="2" stroke-dasharray="none" stroke-linejoin="round" stroke-linecap="butt" stroke-dashoffset="" fill-rule="nonzero" opacity="1" marker-start="" marker-mid="" marker-end="" d="M17.202536821365356,93.94938158988953 C17.202536821365356,86.76706114790056 23.020216379376393,80.94938158988953 30.202536821365356,80.94938158988953 C37.38485726335432,80.94938158988953 43.202536821365356,86.76706114790056 43.202536821365356,93.94938158988953 C43.202536821365356,101.13170203187849 37.38485726335432,106.94938158988953 30.202536821365356,106.94938158988953 C23.020216379376393,106.94938158988953 17.202536821365356,101.13170203187849 17.202536821365356,93.94938158988953 z" class="" id="svg_55"/><path fill="#009900" fill-opacity="1" stroke="#009900" stroke-opacity="1" stroke-width="2" stroke-dasharray="none" stroke-linejoin="round" stroke-linecap="butt" stroke-dashoffset="" fill-rule="nonzero" opacity="1" marker-start="" marker-mid="" marker-end="" d="M8.088599443435669,41.79748225212097 C8.088599443435669,34.61516181013201 13.906279001446705,28.79748225212097 21.08859944343567,28.79748225212097 C28.270919885424632,28.79748225212097 34.08859944343567,34.61516181013201 34.08859944343567,41.79748225212097 C34.08859944343567,48.979802694109935 28.270919885424632,54.79748225212097 21.08859944343567,54.79748225212097 C13.906279001446705,54.79748225212097 8.088599443435669,48.979802694109935 8.088599443435669,41.79748225212097 z" class="" id="svg_56"/><path fill="#009900" fill-opacity="1" stroke="#009900" stroke-opacity="1" stroke-width="2" stroke-dasharray="none" stroke-linejoin="round" stroke-linecap="butt" stroke-dashoffset="" fill-rule="nonzero" opacity="1" marker-start="" marker-mid="" marker-end="" d="M-8.620262861251831,101.03798747062683 C-8.620262861251831,93.85566702863787 -2.8025833032407945,88.03798747062683 4.379737138748169,88.03798747062683 C11.562057580737132,88.03798747062683 17.37973713874817,93.85566702863787 17.37973713874817,101.03798747062683 C17.37973713874817,108.2203079126158 11.562057580737132,114.03798747062683 4.379737138748169,114.03798747062683 C-2.8025833032407945,114.03798747062683 -8.620262861251831,108.2203079126158 -8.620262861251831,101.03798747062683 z" class="" id="svg_57"/><path fill="#009900" fill-opacity="1" stroke="#009900" stroke-opacity="1" stroke-width="2" stroke-dasharray="none" stroke-linejoin="round" stroke-linecap="butt" stroke-dashoffset="" fill-rule="nonzero" opacity="1" marker-start="" marker-mid="" marker-end="" d="M50.620246171951294,102.68355250358582 C50.620246171951294,95.50123206159685 56.43792572996233,89.68355250358582 63.620246171951294,89.68355250358582 C70.80256661394026,89.68355250358582 76.6202461719513,95.50123206159685 76.6202461719513,102.68355250358582 C76.6202461719513,109.86587294557478 70.80256661394026,115.68355250358582 63.620246171951294,115.68355250358582 C56.43792572996233,115.68355250358582 50.620246171951294,109.86587294557478 50.620246171951294,102.68355250358582 z" class="" id="svg_58"/><path fill="#009900" fill-opacity="1" stroke="#009900" stroke-opacity="1" stroke-width="2" stroke-dasharray="none" stroke-linejoin="round" stroke-linecap="butt" stroke-dashoffset="" fill-rule="nonzero" opacity="1" marker-start="" marker-mid="" marker-end="" d="M79.48100972175598,134.70887446403503 C79.48100972175598,127.52655402204607 85.29868927976702,121.70887446403503 92.48100972175598,121.70887446403503 C99.66333016374494,121.70887446403503 105.48100972175598,127.52655402204607 105.48100972175598,134.70887446403503 C105.48100972175598,141.891194906024 99.66333016374494,147.70887446403503 92.48100972175598,147.70887446403503 C85.29868927976702,147.70887446403503 79.48100972175598,141.891194906024 79.48100972175598,134.70887446403503 z" class="" id="svg_59"/><path fill="#009900" fill-opacity="1" stroke="#009900" stroke-opacity="1" stroke-width="2" stroke-dasharray="none" stroke-linejoin="round" stroke-linecap="butt" stroke-dashoffset="" fill-rule="nonzero" opacity="1" marker-start="" marker-mid="" marker-end="" d="M-10.645577192306519,14.835453748703003 C-10.645577192306519,7.6531333067140395 -4.827897634295482,1.835453748703003 2.3544228076934814,1.835453748703003 C9.536743249682445,1.835453748703003 15.354422807693481,7.6531333067140395 15.354422807693481,14.835453748703003 C15.354422807693481,22.017774190691966 9.536743249682445,27.835453748703003 2.3544228076934814,27.835453748703003 C-4.827897634295482,27.835453748703003 -10.645577192306519,22.017774190691966 -10.645577192306519,14.835453748703003 z" class="" id="svg_61"/><path fill="#009900" fill-opacity="1" stroke="#009900" stroke-opacity="1" stroke-width="2" stroke-dasharray="none" stroke-linejoin="round" stroke-linecap="butt" stroke-dashoffset="" fill-rule="nonzero" opacity="1" marker-start="" marker-mid="" marker-end="" d="M28.341758012771606,70.27849268913269 C28.341758012771606,63.09617224714373 34.15943757078264,57.27849268913269 41.341758012771606,57.27849268913269 C48.52407845476057,57.27849268913269 54.341758012771606,63.09617224714373 54.341758012771606,70.27849268913269 C54.341758012771606,77.46081313112165 48.52407845476057,83.27849268913269 41.341758012771606,83.27849268913269 C34.15943757078264,83.27849268913269 28.341758012771606,77.46081313112165 28.341758012771606,70.27849268913269 z" class="" id="svg_62"/><path fill="#67e767" fill-opacity="1" stroke="#67e767" stroke-opacity="1" stroke-width="2" stroke-dasharray="none" stroke-linejoin="round" stroke-linecap="butt" stroke-dashoffset="" fill-rule="nonzero" opacity="1" marker-start="" marker-mid="" marker-end="" d="M9.734157800674438,80.15190577507019 C9.734157800674438,72.96958533308123 15.551837358685475,67.15190577507019 22.73415780067444,67.15190577507019 C29.916478242663402,67.15190577507019 35.73415780067444,72.96958533308123 35.73415780067444,80.15190577507019 C35.73415780067444,87.33422621705915 29.916478242663402,93.15190577507019 22.73415780067444,93.15190577507019 C15.551837358685475,93.15190577507019 9.734157800674438,87.33422621705915 9.734157800674438,80.15190577507019 z" class="" id="svg_63"/><path fill="#67e767" fill-opacity="1" stroke="#67e767" stroke-opacity="1" stroke-width="2" stroke-dasharray="none" stroke-linejoin="round" stroke-linecap="butt" stroke-dashoffset="" fill-rule="nonzero" opacity="1" marker-start="" marker-mid="" marker-end="" d="M-6.3417699337005615,38.75949549674988 C-6.3417699337005615,31.577175054760914 -0.524090375689525,25.759495496749878 6.6582300662994385,25.759495496749878 C13.840550508288402,25.759495496749878 19.65823006629944,31.577175054760914 19.65823006629944,38.75949549674988 C19.65823006629944,45.94181593873884 13.840550508288402,51.75949549674988 6.6582300662994385,51.75949549674988 C-0.524090375689525,51.75949549674988 -6.3417699337005615,45.94181593873884 -6.3417699337005615,38.75949549674988 z" class="" id="svg_65"/><path fill="#67e767" fill-opacity="1" stroke="#67e767" stroke-opacity="1" stroke-width="2" stroke-dasharray="none" stroke-linejoin="round" stroke-linecap="butt" stroke-dashoffset="" fill-rule="nonzero" opacity="1" marker-start="" marker-mid="" marker-end="" d="M-11.025333166122437,74.582279920578 C-11.025333166122437,67.39995947858904 -5.2076536081114,61.582279920578 1.9746668338775637,61.582279920578 C9.156987275866527,61.582279920578 14.974666833877563,67.39995947858904 14.974666833877563,74.582279920578 C14.974666833877563,81.76460036256697 9.156987275866527,87.582279920578 1.9746668338775637,87.582279920578 C-5.2076536081114,87.582279920578 -11.025333166122437,81.76460036256697 -11.025333166122437,74.582279920578 z" class="" id="svg_66"/><path fill="#67e767" fill-opacity="1" stroke="#67e767" stroke-opacity="1" stroke-width="2" stroke-dasharray="none" stroke-linejoin="round" stroke-linecap="butt" stroke-dashoffset="" fill-rule="nonzero" opacity="1" marker-start="" marker-mid="" marker-end="" d="M62.13921761512756,116.10126948356628 C62.13921761512756,108.91894904157732 67.9568971731386,103.10126948356628 75.13921761512756,103.10126948356628 C82.32153805711653,103.10126948356628 88.13921761512756,108.91894904157732 88.13921761512756,116.10126948356628 C88.13921761512756,123.28358992555525 82.32153805711653,129.10126948356628 75.13921761512756,129.10126948356628 C67.9568971731386,129.10126948356628 62.13921761512756,123.28358992555525 62.13921761512756,116.10126948356628 z" class="" id="svg_67"/><path fill="#67e767" fill-opacity="1" stroke="#67e767" stroke-opacity="1" stroke-width="2" stroke-dasharray="none" stroke-linejoin="round" stroke-linecap="butt" stroke-dashoffset="" fill-rule="nonzero" opacity="1" marker-start="" marker-mid="" marker-end="" d="M36.56960701942444,152.55696558952332 C36.56960701942444,145.37464514753435 42.387286577435475,139.55696558952332 49.56960701942444,139.55696558952332 C56.7519274614134,139.55696558952332 62.56960701942444,145.37464514753435 62.56960701942444,152.55696558952332 C62.56960701942444,159.73928603151228 56.7519274614134,165.55696558952332 49.56960701942444,165.55696558952332 C42.387286577435475,165.55696558952332 36.56960701942444,159.73928603151228 36.56960701942444,152.55696558952332 z" class="" id="svg_68"/><path fill="#67e767" fill-opacity="1" stroke="#67e767" stroke-opacity="1" stroke-width="2" stroke-dasharray="none" stroke-linejoin="round" stroke-linecap="butt" stroke-dashoffset="" fill-rule="nonzero" opacity="1" marker-start="" marker-mid="" marker-end="" d="M70.49364876747131,152.93672633171082 C70.49364876747131,145.75440588972185 76.31132832548235,139.93672633171082 83.49364876747131,139.93672633171082 C90.67596920946028,139.93672633171082 96.49364876747131,145.75440588972185 96.49364876747131,152.93672633171082 C96.49364876747131,160.11904677369978 90.67596920946028,165.93672633171082 83.49364876747131,165.93672633171082 C76.31132832548235,165.93672633171082 70.49364876747131,160.11904677369978 70.49364876747131,152.93672633171082 z" class="" id="svg_69"/><path fill="#67e767" fill-opacity="1" stroke="#67e767" stroke-opacity="1" stroke-width="2" stroke-dasharray="none" stroke-linejoin="round" stroke-linecap="butt" stroke-dashoffset="" fill-rule="nonzero" opacity="1" marker-start="" marker-mid="" marker-end="" d="M-11.405093908309937,119.13925623893738 C-11.405093908309937,111.95693579694841 -5.5874143502989,106.13925623893738 1.5949060916900637,106.13925623893738 C8.777226533679027,106.13925623893738 14.594906091690065,111.95693579694841 14.594906091690065,119.13925623893738 C14.594906091690065,126.32157668092634 8.777226533679027,132.13925623893738 1.5949060916900637,132.13925623893738 C-5.5874143502989,132.13925623893738 -11.405093908309937,126.32157668092634 -11.405093908309937,119.13925623893738 z" class="" id="svg_70"/><path fill="#67e767" fill-opacity="1" stroke="#67e767" stroke-opacity="1" stroke-width="2" stroke-dasharray="none" stroke-linejoin="round" stroke-linecap="butt" stroke-dashoffset="" fill-rule="nonzero" opacity="1" marker-start="" marker-mid="" marker-end="" d="M16.82278084754944,128.3797652721405 C16.82278084754944,121.19744483015154 22.640460405560475,115.3797652721405 29.82278084754944,115.3797652721405 C37.0051012895384,115.3797652721405 42.82278084754944,121.19744483015154 42.82278084754944,128.3797652721405 C42.82278084754944,135.56208571412947 37.0051012895384,141.3797652721405 29.82278084754944,141.3797652721405 C22.640460405560475,141.3797652721405 16.82278084754944,135.56208571412947 16.82278084754944,128.3797652721405 z" class="" id="svg_72"/><path fill="#67e767" fill-opacity="1" stroke="#67e767" stroke-opacity="1" stroke-width="2" stroke-dasharray="none" stroke-linejoin="round" stroke-linecap="butt" stroke-dashoffset="" fill-rule="nonzero" opacity="1" marker-start="" marker-mid="" marker-end="" d="M12.772121667861938,149.0126769542694 C12.772121667861938,141.83035651228045 18.589801225872975,136.0126769542694 25.77212166786194,136.0126769542694 C32.9544421098509,136.0126769542694 38.77212166786194,141.83035651228045 38.77212166786194,149.0126769542694 C38.77212166786194,156.19499739625837 32.9544421098509,162.0126769542694 25.77212166786194,162.0126769542694 C18.589801225872975,162.0126769542694 12.772121667861938,156.19499739625837 12.772121667861938,149.0126769542694 z" class="" id="svg_73"/><path fill="#67e767" fill-opacity="1" stroke="#67e767" stroke-opacity="1" stroke-width="2" stroke-dasharray="none" stroke-linejoin="round" stroke-linecap="butt" stroke-dashoffset="" fill-rule="nonzero" opacity="1" marker-start="" marker-mid="" marker-end="" d="M25.810116052627563,108.88608241081238 C25.810116052627563,101.70376196882341 31.6277956106386,95.88608241081238 38.81011605262756,95.88608241081238 C45.99243649461653,95.88608241081238 51.81011605262756,101.70376196882341 51.81011605262756,108.88608241081238 C51.81011605262756,116.06840285280134 45.99243649461653,121.88608241081238 38.81011605262756,121.88608241081238 C31.6277956106386,121.88608241081238 25.810116052627563,116.06840285280134 25.810116052627563,108.88608241081238 z" class="" id="svg_74"/><path fill="#67e767" fill-opacity="1" stroke="#67e767" stroke-opacity="1" stroke-width="2" stroke-dasharray="none" stroke-linejoin="round" stroke-linecap="butt" stroke-dashoffset="" fill-rule="nonzero" opacity="1" marker-start="" marker-mid="" marker-end="" d="M529.3544359207153,390.27850818634033 C529.3544359207153,383.09618774435137 535.1721154787264,377.27850818634033 542.3544359207153,377.27850818634033 C549.5367563627043,377.27850818634033 555.3544359207153,383.09618774435137 555.3544359207153,390.27850818634033 C555.3544359207153,397.4608286283293 549.5367563627043,403.27850818634033 542.3544359207153,403.27850818634033 C535.1721154787264,403.27850818634033 529.3544359207153,397.4608286283293 529.3544359207153,390.27850818634033 z" class="" id="svg_75"/><path fill="#67e767" fill-opacity="1" stroke="#67e767" stroke-opacity="1" stroke-width="2" stroke-dasharray="none" stroke-linejoin="round" stroke-linecap="butt" stroke-dashoffset="" fill-rule="nonzero" opacity="1" marker-start="" marker-mid="" marker-end="" d="M549.3544359207153,410.27850818634033 C549.3544359207153,403.09618774435137 555.1721154787264,397.27850818634033 562.3544359207153,397.27850818634033 C569.5367563627043,397.27850818634033 575.3544359207153,403.09618774435137 575.3544359207153,410.27850818634033 C575.3544359207153,417.4608286283293 569.5367563627043,423.27850818634033 562.3544359207153,423.27850818634033 C555.1721154787264,423.27850818634033 549.3544359207153,417.4608286283293 549.3544359207153,410.27850818634033 z" class="" id="svg_76"/><path fill="#67e767" fill-opacity="1" stroke="#67e767" stroke-opacity="1" stroke-width="2" stroke-dasharray="none" stroke-linejoin="round" stroke-linecap="butt" stroke-dashoffset="" fill-rule="nonzero" opacity="1" marker-start="" marker-mid="" marker-end="" d="M34.54427742958069,95.46837306022644 C34.54427742958069,88.28605261823748 40.361956987591725,82.46837306022644 47.54427742958069,82.46837306022644 C54.72659787156965,82.46837306022644 60.54427742958069,88.28605261823748 60.54427742958069,95.46837306022644 C60.54427742958069,102.6506935022154 54.72659787156965,108.46837306022644 47.54427742958069,108.46837306022644 C40.361956987591725,108.46837306022644 34.54427742958069,102.6506935022154 34.54427742958069,95.46837306022644 z" class="" id="svg_71"/><path fill="#009900" fill-opacity="1" stroke="#009900" stroke-opacity="1" stroke-width="2" stroke-dasharray="none" stroke-linejoin="round" stroke-linecap="butt" stroke-dashoffset="" fill-rule="nonzero" opacity="1" marker-start="" marker-mid="" marker-end="" d="M27.202536821365356,128.63292384147644 C27.202536821365356,121.45060339948748 33.02021637937639,115.63292384147644 40.202536821365356,115.63292384147644 C47.38485726335432,115.63292384147644 53.202536821365356,121.45060339948748 53.202536821365356,128.63292384147644 C53.202536821365356,135.8152442834654 47.38485726335432,141.63292384147644 40.202536821365356,141.63292384147644 C33.02021637937639,141.63292384147644 27.202536821365356,135.8152442834654 27.202536821365356,128.63292384147644 z" class="" id="svg_64"/><path fill="#009900" fill-opacity="1" stroke="#009900" stroke-opacity="1" stroke-width="2" stroke-dasharray="none" stroke-linejoin="round" stroke-linecap="butt" stroke-dashoffset="" fill-rule="nonzero" opacity="1" marker-start="" marker-mid="" marker-end="" d="M-1.1518943309783936,131.92406153678894 C-1.1518943309783936,124.74174109479998 4.665785227032643,118.92406153678894 11.848105669021606,118.92406153678894 C19.03042611101057,118.92406153678894 24.848105669021606,124.74174109479998 24.848105669021606,131.92406153678894 C24.848105669021606,139.1063819787779 19.03042611101057,144.92406153678894 11.848105669021606,144.92406153678894 C4.665785227032643,144.92406153678894 -1.1518943309783936,139.1063819787779 -1.1518943309783936,131.92406153678894 z" class="" id="svg_60"/><path fill="#1aeb1a" fill-opacity="1" stroke="#1aeb1a" stroke-opacity="1" stroke-width="2" stroke-dasharray="none" stroke-linejoin="round" stroke-linecap="butt" stroke-dashoffset="" fill-rule="nonzero" opacity="1" marker-start="" marker-mid="" marker-end="" d="M14.037970781326294,60.405075788497925 C14.037970781326294,53.22275534650896 19.85565033933733,47.405075788497925 27.037970781326294,47.405075788497925 C34.22029122331526,47.405075788497925 40.037970781326294,53.22275534650896 40.037970781326294,60.405075788497925 C40.037970781326294,67.58739623048689 34.22029122331526,73.40507578849792 27.037970781326294,73.40507578849792 C19.85565033933733,73.40507578849792 14.037970781326294,67.58739623048689 14.037970781326294,60.405075788497925 z" class="" id="svg_54"/><path fill="#1aeb1a" fill-opacity="1" stroke="#1aeb1a" stroke-opacity="1" stroke-width="2" stroke-dasharray="none" stroke-linejoin="round" stroke-linecap="butt" stroke-dashoffset="" fill-rule="nonzero" opacity="1" marker-start="" marker-mid="" marker-end="" d="M6.443034410476685,111.67088294029236 C6.443034410476685,104.4885624983034 12.260713968487735,98.67088294029236 19.443034410476685,98.67088294029236 C26.625354852465648,98.67088294029236 32.443034410476685,104.4885624983034 32.443034410476685,111.67088294029236 C32.443034410476685,118.85320338228132 26.625354852465648,124.67088294029236 19.443034410476685,124.67088294029236 C12.260713968487735,124.67088294029236 6.443034410476685,118.85320338228132 6.443034410476685,111.67088294029236 z" class="" id="svg_46"/><path fill="#1aeb1a" fill-opacity="1" stroke="#1aeb1a" stroke-opacity="1" stroke-width="2" stroke-dasharray="none" stroke-linejoin="round" stroke-linecap="butt" stroke-dashoffset="" fill-rule="nonzero" opacity="1" marker-start="" marker-mid="" marker-end="" d="M85.3037941455841,150.65822577476501 C85.3037941455841,143.47590533277605 91.12147370359514,137.65822577476501 98.3037941455841,137.65822577476501 C105.48611458757307,137.65822577476501 111.3037941455841,143.47590533277605 111.3037941455841,150.65822577476501 C111.3037941455841,157.84054621675398 105.48611458757307,163.65822577476501 98.3037941455841,163.65822577476501 C91.12147370359514,163.65822577476501 85.3037941455841,157.84054621675398 85.3037941455841,150.65822577476501 z" class="" id="svg_47"/><path fill="#1aeb1a" fill-opacity="1" stroke="#1aeb1a" stroke-opacity="1" stroke-width="2" stroke-dasharray="none" stroke-linejoin="round" stroke-linecap="butt" stroke-dashoffset="" fill-rule="nonzero" opacity="1" marker-start="" marker-mid="" marker-end="" d="M-2.2911460399627686,148.50632452964783 C-2.2911460399627686,141.32400408765886 3.526533518048268,135.50632452964783 10.708853960037231,135.50632452964783 C17.891174402026195,135.50632452964783 23.70885396003723,141.32400408765886 23.70885396003723,148.50632452964783 C23.70885396003723,155.6886449716368 17.891174402026195,161.50632452964783 10.708853960037231,161.50632452964783 C3.526533518048268,161.50632452964783 -2.2911460399627686,155.6886449716368 -2.2911460399627686,148.50632452964783 z" class="" id="svg_48"/></g></svg>