<svg xmlns="http://www.w3.org/2000/svg" xmlns:se="http://svg-edit.googlecode.com" xmlns:xlink="http://www.w3.org/1999/xlink" xmlns:dc="http://purl.org/dc/elements/1.1/" xmlns:cc="http://creativecommons.org/ns#" xmlns:rdf="http://www.w3.org/1999/02/22-rdf-syntax-ns#" xmlns:inkscape="http://www.inkscape.org/namespaces/inkscape" width="204.26582284593337" height="235.54430300286708" style="">
                                    <title>my vector image</title>
                                    <!-- Created with Vector Paint - http://www.vectorpaint.yaks.com/ https://chrome.google.com/webstore/detail/hnbpdiengicdefcjecjbnjnoifekhgdo -->
                                    <rect id="backgroundrect" width="100%" height="100%" x="0" y="0" fill="#FFFFFF" stroke="none" class="" style=""/>
                                <g style="" class="currentLayer"><title>Layer 1</title><path fill="#67e767" fill-opacity="1" stroke="#67e767" stroke-opacity="1" stroke-width="2" stroke-dasharray="none" stroke-linejoin="round" stroke-linecap="butt" stroke-dashoffset="" fill-rule="nonzero" opacity="1" marker-start="" marker-mid="" marker-end="" d="M27.645559787750244,91.56326705217361 C27.645559787750244,80.93664956652657 36.84225184301647,72.32908940315247 48.196192651987076,72.32908940315247 C59.55013346095768,72.32908940315247 68.74682551622391,80.93664956652657 68.74682551622391,91.56326705217361 C68.74682551622391,102.18988453782066 59.55013346095768,110.79744470119476 48.196192651987076,110.79744470119476 C36.84225184301647,110.79744470119476 27.645559787750244,102.18988453782066 27.645559787750244,91.56326705217361 z" id="svg_2" class=""/><path fill="#67e767" fill-opacity="1" stroke="#67e767" stroke-opacity="1" stroke-width="2" stroke-dasharray="none" stroke-linejoin="round" stroke-linecap="butt" stroke-dashoffset="" fill-rule="nonzero" opacity="1" marker-start="" marker-mid="" marker-end="" d="M-11.215207576751709,38.14555102586746 C-11.215207576751709,27.518933540220416 -2.01851552148554,18.911373376846313 9.335425287485123,18.911373376846313 C20.68936609645573,18.911373376846313 29.886058151721954,27.518933540220416 29.886058151721954,38.14555102586746 C29.886058151721954,48.77216851151451 20.68936609645573,57.37972867488861 9.335425287485123,57.37972867488861 C-2.01851552148554,57.37972867488861 -11.215207576751709,48.77216851151451 -11.215207576751709,38.14555102586746 z" class="" id="svg_5"/><path fill="#67e767" fill-opacity="1" stroke="#67e767" stroke-opacity="1" stroke-width="2" stroke-dasharray="none" stroke-linejoin="round" stroke-linecap="butt" stroke-dashoffset="" fill-rule="nonzero" opacity="1" marker-start="" marker-mid="" marker-end="" d="M156.8860650062561,222.70251446962357 C156.8860650062561,212.07589698397652 166.08275706152233,203.46833682060242 177.43669787049294,203.46833682060242 C188.79063867946354,203.46833682060242 197.98733073472977,212.07589698397652 197.98733073472977,222.70251446962357 C197.98733073472977,233.3291319552706 188.79063867946354,241.93669211864471 177.43669787049294,241.93669211864471 C166.08275706152233,241.93669211864471 156.8860650062561,233.3291319552706 156.8860650062561,222.70251446962357 z" class="" id="svg_12"/><path fill="#67e767" fill-opacity="1" stroke="#67e767" stroke-opacity="1" stroke-width="2" stroke-dasharray="none" stroke-linejoin="round" stroke-linecap="butt" stroke-dashoffset="" fill-rule="nonzero" opacity="1" marker-start="" marker-mid="" marker-end="" d="M49.67087411880493,118.65188151597977 C49.67087411880493,108.02526403033272 58.86756617407116,99.41770386695862 70.22150698304176,99.41770386695862 C81.57544779201237,99.41770386695862 90.7721398472786,108.02526403033272 90.7721398472786,118.65188151597977 C90.7721398472786,129.2784990016268 81.57544779201237,137.88605916500092 70.22150698304176,137.88605916500092 C58.86756617407116,137.88605916500092 49.67087411880493,129.2784990016268 49.67087411880493,118.65188151597977 z" class="" id="svg_13"/><path fill="#67e767" fill-opacity="1" stroke="#67e767" stroke-opacity="1" stroke-width="2" stroke-dasharray="none" stroke-linejoin="round" stroke-linecap="butt" stroke-dashoffset="" fill-rule="nonzero" opacity="1" marker-start="" marker-mid="" marker-end="" d="M-13.873429775238037,96.87972790002823 C-13.873429775238037,86.25311041438118 -4.676737719971811,77.64555025100708 6.6772030889987946,77.64555025100708 C18.0311438979694,77.64555025100708 27.227835953235626,86.25311041438118 27.227835953235626,96.87972790002823 C27.227835953235626,107.50634538567527 18.0311438979694,116.11390554904938 6.6772030889987946,116.11390554904938 C-4.676737719971811,116.11390554904938 -13.873429775238037,107.50634538567527 -13.873429775238037,96.87972790002823 z" class="" id="svg_14"/><path fill="#67e767" fill-opacity="1" stroke="#67e767" stroke-opacity="1" stroke-width="2" stroke-dasharray="none" stroke-linejoin="round" stroke-linecap="butt" stroke-dashoffset="" fill-rule="nonzero" opacity="1" marker-start="" marker-mid="" marker-end="" d="M56.7594780921936,195.99366694688797 C56.7594780921936,185.36704946124092 65.95617014745983,176.75948929786682 77.31011095643044,176.75948929786682 C88.66405176540104,176.75948929786682 97.86074382066727,185.36704946124092 97.86074382066727,195.99366694688797 C97.86074382066727,206.62028443253502 88.66405176540104,215.22784459590912 77.31011095643044,215.22784459590912 C65.95617014745983,215.22784459590912 56.7594780921936,206.62028443253502 56.7594780921936,195.99366694688797 z" class="" id="svg_15"/><path fill="#009900" fill-opacity="1" stroke="#009900" stroke-opacity="1" stroke-width="2" stroke-dasharray="none" stroke-linejoin="round" stroke-linecap="butt" stroke-dashoffset="" fill-rule="nonzero" opacity="1" marker-start="" marker-mid="" marker-end="" d="M3.9746575355529785,65.36074024438858 C3.9746575355529785,54.734122758741535 13.171349590819204,46.12656259536743 24.52529039978981,46.12656259536743 C35.879231208760416,46.12656259536743 45.07592326402664,54.734122758741535 45.07592326402664,65.36074024438858 C45.07592326402664,75.98735773003563 35.879231208760416,84.59491789340973 24.52529039978981,84.59491789340973 C13.171349590819204,84.59491789340973 3.9746575355529785,75.98735773003563 3.9746575355529785,65.36074024438858 z" class="" id="svg_16"/><path fill="#1aeb1a" fill-opacity="1" stroke="#1aeb1a" stroke-opacity="1" stroke-width="2" stroke-dasharray="none" stroke-linejoin="round" stroke-linecap="butt" stroke-dashoffset="" fill-rule="nonzero" opacity="1" marker-start="" marker-mid="" marker-end="" d="M-13.367139339447021,68.27213245630264 C-13.367139339447021,57.6455149706556 -4.170447284180796,49.037954807281494 7.18349352478981,49.037954807281494 C18.537434333760416,49.037954807281494 27.734126389026642,57.6455149706556 27.734126389026642,68.27213245630264 C27.734126389026642,78.89874994194969 18.537434333760416,87.50631010532379 7.18349352478981,87.50631010532379 C-4.170447284180796,87.50631010532379 -13.367139339447021,78.89874994194969 -13.367139339447021,68.27213245630264 z" class="" id="svg_25"/><path fill="#1aeb1a" fill-opacity="1" stroke="#1aeb1a" stroke-opacity="1" stroke-width="2" stroke-dasharray="none" stroke-linejoin="round" stroke-linecap="butt" stroke-dashoffset="" fill-rule="nonzero" opacity="1" marker-start="" marker-mid="" marker-end="" d="M138.91136407852173,199.66454273462296 C138.91136407852173,189.0379252489759 148.10805613378795,180.4303650856018 159.46199694275856,180.4303650856018 C170.81593775172917,180.4303650856018 180.0126298069954,189.0379252489759 180.0126298069954,199.66454273462296 C180.0126298069954,210.29116022027 170.81593775172917,218.8987203836441 159.46199694275856,218.8987203836441 C148.10805613378795,218.8987203836441 138.91136407852173,210.29116022027 138.91136407852173,199.66454273462296 z" class="" id="svg_26"/><path fill="#1aeb1a" fill-opacity="1" stroke="#1aeb1a" stroke-opacity="1" stroke-width="2" stroke-dasharray="none" stroke-linejoin="round" stroke-linecap="butt" stroke-dashoffset="" fill-rule="nonzero" opacity="1" marker-start="" marker-mid="" marker-end="" d="M110.81009149551392,179.15821033716202 C110.81009149551392,168.53159285151497 120.00678355078014,159.92403268814087 131.36072435975075,159.92403268814087 C142.71466516872135,159.92403268814087 151.91135722398758,168.53159285151497 151.91135722398758,179.15821033716202 C151.91135722398758,189.78482782280906 142.71466516872135,198.39238798618317 131.36072435975075,198.39238798618317 C120.00678355078014,198.39238798618317 110.81009149551392,189.78482782280906 110.81009149551392,179.15821033716202 z" class="" id="svg_27"/><path fill="#1aeb1a" fill-opacity="1" stroke="#1aeb1a" stroke-opacity="1" stroke-width="2" stroke-dasharray="none" stroke-linejoin="round" stroke-linecap="butt" stroke-dashoffset="" fill-rule="nonzero" opacity="1" marker-start="" marker-mid="" marker-end="" d="M183.9746420931956,226.68985322714502 C183.9746420931956,215.53872324589713 192.46324292687217,206.50630796108635 202.94299704252217,206.50630796108635 C213.42275115817222,206.50630796108635 221.91135199184873,215.53872324589713 221.91135199184873,226.68985322714502 C221.91135199184873,237.8409832083929 213.42275115817222,246.8733984932037 202.94299704252217,246.8733984932037 C192.46324292687217,246.8733984932037 183.9746420931956,237.8409832083929 183.9746420931956,226.68985322714502 z" class="" id="svg_28"/><path fill="#1aeb1a" fill-opacity="1" stroke="#1aeb1a" stroke-opacity="1" stroke-width="2" stroke-dasharray="none" stroke-linejoin="round" stroke-linecap="butt" stroke-dashoffset="" fill-rule="nonzero" opacity="1" marker-start="" marker-mid="" marker-end="" d="M-6.7848639488220215,225.48732715845108 C-6.7848639488220215,214.86070967280403 2.4118281064442044,206.25314950942993 13.76576891541481,206.25314950942993 C25.119709724385416,206.25314950942993 34.31640177965164,214.86070967280403 34.31640177965164,225.48732715845108 C34.31640177965164,236.11394464409813 25.119709724385416,244.72150480747223 13.76576891541481,244.72150480747223 C2.4118281064442044,244.72150480747223 -6.7848639488220215,236.11394464409813 -6.7848639488220215,225.48732715845108 z" class="" id="svg_34"/><path fill="#1aeb1a" fill-opacity="1" stroke="#1aeb1a" stroke-opacity="1" stroke-width="2" stroke-dasharray="none" stroke-linejoin="round" stroke-linecap="butt" stroke-dashoffset="" fill-rule="nonzero" opacity="1" marker-start="" marker-mid="" marker-end="" d="M29.037920475006104,192.32276493310928 C29.037920475006104,181.69614744746224 38.23461253027233,173.08858728408813 49.588553339242935,173.08858728408813 C60.94249414821354,173.08858728408813 70.13918620347977,181.69614744746224 70.13918620347977,192.32276493310928 C70.13918620347977,202.94938241875633 60.94249414821354,211.55694258213043 49.588553339242935,211.55694258213043 C38.23461253027233,211.55694258213043 29.037920475006104,202.94938241875633 29.037920475006104,192.32276493310928 z" class="" id="svg_35"/><path fill="#1aeb1a" fill-opacity="1" stroke="#1aeb1a" stroke-opacity="1" stroke-width="2" stroke-dasharray="none" stroke-linejoin="round" stroke-linecap="butt" stroke-dashoffset="" fill-rule="nonzero" opacity="1" marker-start="" marker-mid="" marker-end="" d="M78.78477716445923,195.23415714502335 C78.78477716445923,184.6075396593763 87.98146921972545,175.9999794960022 99.33541002869606,175.9999794960022 C110.68935083766667,175.9999794960022 119.88604289293289,184.6075396593763 119.88604289293289,195.23415714502335 C119.88604289293289,205.8607746306704 110.68935083766667,214.4683347940445 99.33541002869606,214.4683347940445 C87.98146921972545,214.4683347940445 78.78477716445923,205.8607746306704 78.78477716445923,195.23415714502335 z" class="" id="svg_36"/><path fill="#1aeb1a" fill-opacity="1" stroke="#1aeb1a" stroke-opacity="1" stroke-width="2" stroke-dasharray="none" stroke-linejoin="round" stroke-linecap="butt" stroke-dashoffset="" fill-rule="nonzero" opacity="1" marker-start="" marker-mid="" marker-end="" d="M69.0379204750061,141.81643253564835 C69.0379204750061,131.1898150500013 78.23461253027233,122.5822548866272 89.58855333924294,122.5822548866272 C100.94249414821354,122.5822548866272 110.13918620347977,131.1898150500013 110.13918620347977,141.81643253564835 C110.13918620347977,152.4430500212954 100.94249414821354,161.0506101846695 89.58855333924294,161.0506101846695 C78.23461253027233,161.0506101846695 69.0379204750061,152.4430500212954 69.0379204750061,141.81643253564835 z" class="" id="svg_37"/><path fill="#1aeb1a" fill-opacity="1" stroke="#1aeb1a" stroke-opacity="1" stroke-width="2" stroke-dasharray="none" stroke-linejoin="round" stroke-linecap="butt" stroke-dashoffset="" fill-rule="nonzero" opacity="1" marker-start="" marker-mid="" marker-end="" d="M-8.430432796478271,166.24681240320206 C-8.430432796478271,155.620194917555 0.7662592587879544,147.0126347541809 12.12020006775856,147.0126347541809 C23.474140876729166,147.0126347541809 32.67083293199539,155.620194917555 32.67083293199539,166.24681240320206 C32.67083293199539,176.8734298888491 23.474140876729166,185.4809900522232 12.12020006775856,185.4809900522232 C0.7662592587879544,185.4809900522232 -8.430432796478271,176.8734298888491 -8.430432796478271,166.24681240320206 z" class="" id="svg_38"/><path fill="#1aeb1a" fill-opacity="1" stroke="#1aeb1a" stroke-opacity="1" stroke-width="2" stroke-dasharray="none" stroke-linejoin="round" stroke-linecap="butt" stroke-dashoffset="" fill-rule="nonzero" opacity="1" marker-start="" marker-mid="" marker-end="" d="M38.78477716445923,146.37339740991592 C38.78477716445923,135.74677992426888 47.981469219725454,127.13921976089478 59.33541002869606,127.13921976089478 C70.68935083766667,127.13921976089478 79.88604289293289,135.74677992426888 79.88604289293289,146.37339740991592 C79.88604289293289,157.00001489556297 70.68935083766667,165.60757505893707 59.33541002869606,165.60757505893707 C47.981469219725454,165.60757505893707 38.78477716445923,157.00001489556297 38.78477716445923,146.37339740991592 z" class="" id="svg_29"/><path fill="#1aeb1a" fill-opacity="1" stroke="#1aeb1a" stroke-opacity="1" stroke-width="2" stroke-dasharray="none" stroke-linejoin="round" stroke-linecap="butt" stroke-dashoffset="" fill-rule="nonzero" opacity="1" marker-start="" marker-mid="" marker-end="" d="M11.949327945709229,93.58858448266983 C11.949327945709229,82.96196699702278 21.146020000975454,74.35440683364868 32.49996080994606,74.35440683364868 C43.853901618916666,74.35440683364868 53.05059367418289,82.96196699702278 53.05059367418289,93.58858448266983 C53.05059367418289,104.21520196831688 43.853901618916666,112.82276213169098 32.49996080994606,112.82276213169098 C21.146020000975454,112.82276213169098 11.949327945709229,104.21520196831688 11.949327945709229,93.58858448266983 z" class="" id="svg_30"/><path fill="#1aeb1a" fill-opacity="1" stroke="#1aeb1a" stroke-opacity="1" stroke-width="2" stroke-dasharray="none" stroke-linejoin="round" stroke-linecap="butt" stroke-dashoffset="" fill-rule="nonzero" opacity="1" marker-start="" marker-mid="" marker-end="" d="M-9.189923763275146,128.77845722436908 C-9.189923763275146,118.151839738722 0.006768291991079423,109.5442795753479 11.360709100961685,109.5442795753479 C22.71464990993229,109.5442795753479 31.911341965198517,118.151839738722 31.911341965198517,128.77845722436908 C31.911341965198517,139.4050747100161 22.71464990993229,148.0126348733902 11.360709100961685,148.0126348733902 C0.006768291991079423,148.0126348733902 -9.189923763275146,139.4050747100161 -9.189923763275146,128.77845722436908 z" class="" id="svg_31"/><path fill="#1aeb1a" fill-opacity="1" stroke="#1aeb1a" stroke-opacity="1" stroke-width="2" stroke-dasharray="none" stroke-linejoin="round" stroke-linecap="butt" stroke-dashoffset="" fill-rule="nonzero" opacity="1" marker-start="" marker-mid="" marker-end="" d="M79.1645073890686,177.25947147607803 C79.1645073890686,166.632853990431 88.36119944433483,158.02529382705688 99.71514025330544,158.02529382705688 C111.06908106227604,158.02529382705688 120.26577311754227,166.632853990431 120.26577311754227,177.25947147607803 C120.26577311754227,187.88608896172508 111.06908106227604,196.49364912509918 99.71514025330544,196.49364912509918 C88.36119944433483,196.49364912509918 79.1645073890686,187.88608896172508 79.1645073890686,177.25947147607803 z" class="" id="svg_32"/><path fill="#1aeb1a" fill-opacity="1" stroke="#1aeb1a" stroke-opacity="1" stroke-width="2" stroke-dasharray="none" stroke-linejoin="round" stroke-linecap="butt" stroke-dashoffset="" fill-rule="nonzero" opacity="1" marker-start="" marker-mid="" marker-end="" d="M63.72148370742798,220.6771941781044 C63.72148370742798,210.05057669245735 72.9181757626942,201.44301652908325 84.27211657166481,201.44301652908325 C95.62605738063542,201.44301652908325 104.82274943590164,210.05057669245735 104.82274943590164,220.6771941781044 C104.82274943590164,231.30381166375145 95.62605738063542,239.91137182712555 84.27211657166481,239.91137182712555 C72.9181757626942,239.91137182712555 63.72148370742798,231.30381166375145 63.72148370742798,220.6771941781044 z" class="" id="svg_33"/><path fill="#009900" fill-opacity="1" stroke="#009900" stroke-opacity="1" stroke-width="2" stroke-dasharray="none" stroke-linejoin="round" stroke-linecap="butt" stroke-dashoffset="" fill-rule="nonzero" opacity="1" marker-start="" marker-mid="" marker-end="" d="M0.556948184967041,151.81644374132156 C0.556948184967041,141.18982625567452 9.753640240233267,132.58226609230042 21.107581049203873,132.58226609230042 C32.46152185817448,132.58226609230042 41.658213913440704,141.18982625567452 41.658213913440704,151.81644374132156 C41.658213913440704,162.4430612269686 32.46152185817448,171.0506213903427 21.107581049203873,171.0506213903427 C9.753640240233267,171.0506213903427 0.556948184967041,162.4430612269686 0.556948184967041,151.81644374132156 z" class="" id="svg_17"/><path fill="#009900" fill-opacity="1" stroke="#009900" stroke-opacity="1" stroke-width="2" stroke-dasharray="none" stroke-linejoin="round" stroke-linecap="butt" stroke-dashoffset="" fill-rule="nonzero" opacity="1" marker-start="" marker-mid="" marker-end="" d="M26.25316095352173,220.55062800645828 C26.25316095352173,209.92401052081124 35.449853008787954,201.31645035743713 46.80379381775856,201.31645035743713 C58.157734626729166,201.31645035743713 67.35442668199539,209.92401052081124 67.35442668199539,220.55062800645828 C67.35442668199539,231.17724549210533 58.157734626729166,239.78480565547943 46.80379381775856,239.78480565547943 C35.449853008787954,239.78480565547943 26.25316095352173,231.17724549210533 26.25316095352173,220.55062800645828 z" class="" id="svg_18"/><path fill="#009900" fill-opacity="1" stroke="#009900" stroke-opacity="1" stroke-width="2" stroke-dasharray="none" stroke-linejoin="round" stroke-linecap="butt" stroke-dashoffset="" fill-rule="nonzero" opacity="1" marker-start="" marker-mid="" marker-end="" d="M-5.0126776695251465,188.01897364854813 C-5.0126776695251465,177.39235616290108 4.184014385741079,168.78479599952698 15.537955194711685,168.78479599952698 C26.89189600368229,168.78479599952698 36.08858805894852,177.39235616290108 36.08858805894852,188.01897364854813 C36.08858805894852,198.64559113419517 26.89189600368229,207.25315129756927 15.537955194711685,207.25315129756927 C4.184014385741079,207.25315129756927 -5.0126776695251465,198.64559113419517 -5.0126776695251465,188.01897364854813 z" class="" id="svg_19"/><path fill="#009900" fill-opacity="1" stroke="#009900" stroke-opacity="1" stroke-width="2" stroke-dasharray="none" stroke-linejoin="round" stroke-linecap="butt" stroke-dashoffset="" fill-rule="nonzero" opacity="1" marker-start="" marker-mid="" marker-end="" d="M116.8860650062561,229.53797084093094 C116.8860650062561,218.9113533552839 126.08275706152233,210.3037931919098 137.43669787049294,210.3037931919098 C148.79063867946354,210.3037931919098 157.98733073472977,218.9113533552839 157.98733073472977,229.53797084093094 C157.98733073472977,240.16458832657798 148.79063867946354,248.7721484899521 137.43669787049294,248.7721484899521 C126.08275706152233,248.7721484899521 116.8860650062561,240.16458832657798 116.8860650062561,229.53797084093094 z" class="" id="svg_20"/><path fill="#009900" fill-opacity="1" stroke="#009900" stroke-opacity="1" stroke-width="2" stroke-dasharray="none" stroke-linejoin="round" stroke-linecap="butt" stroke-dashoffset="" fill-rule="nonzero" opacity="1" marker-start="" marker-mid="" marker-end="" d="M98.27846002578735,158.39872485399246 C98.27846002578735,147.77210736834542 107.47515208105358,139.1645472049713 118.82909289002419,139.1645472049713 C130.1830336989948,139.1645472049713 139.37972575426102,147.77210736834542 139.37972575426102,158.39872485399246 C139.37972575426102,169.0253423396395 130.1830336989948,177.6329025030136 118.82909289002419,177.6329025030136 C107.47515208105358,177.6329025030136 98.27846002578735,169.0253423396395 98.27846002578735,158.39872485399246 z" class="" id="svg_21"/><path fill="#009900" fill-opacity="1" stroke="#009900" stroke-opacity="1" stroke-width="2" stroke-dasharray="none" stroke-linejoin="round" stroke-linecap="butt" stroke-dashoffset="" fill-rule="nonzero" opacity="1" marker-start="" marker-mid="" marker-end="" d="M48.65822076797485,159.41138154268265 C48.65822076797485,148.7847640570356 57.85491282324108,140.1772038936615 69.20885363221169,140.1772038936615 C80.56279444118229,140.1772038936615 89.75948649644852,148.7847640570356 89.75948649644852,159.41138154268265 C89.75948649644852,170.0379990283297 80.56279444118229,178.6455591917038 69.20885363221169,178.6455591917038 C57.85491282324108,178.6455591917038 48.65822076797485,170.0379990283297 48.65822076797485,159.41138154268265 z" class="" id="svg_22"/><path fill="#009900" fill-opacity="1" stroke="#009900" stroke-opacity="1" stroke-width="2" stroke-dasharray="none" stroke-linejoin="round" stroke-linecap="butt" stroke-dashoffset="" fill-rule="nonzero" opacity="1" marker-start="" marker-mid="" marker-end="" d="M12.329103946685791,107.25948268175125 C12.329103946685791,96.6328651961042 21.525796001952017,88.0253050327301 32.87973681092262,88.0253050327301 C44.23367761989323,88.0253050327301 53.430369675159454,96.6328651961042 53.430369675159454,107.25948268175125 C53.430369675159454,117.8861001673983 44.23367761989323,126.4936603307724 32.87973681092262,126.4936603307724 C21.525796001952017,126.4936603307724 12.329103946685791,117.8861001673983 12.329103946685791,107.25948268175125 z" class="" id="svg_24"/><path fill="#009900" fill-opacity="1" stroke="#009900" stroke-opacity="1" stroke-width="2" stroke-dasharray="none" stroke-linejoin="round" stroke-linecap="butt" stroke-dashoffset="" fill-rule="nonzero" opacity="1" marker-start="" marker-mid="" marker-end="" d="M102.83543252944946,195.8670704960823 C102.83543252944946,185.24045301043526 112.03212458471569,176.63289284706116 123.3860653936863,176.63289284706116 C134.7400062026569,176.63289284706116 143.93669825792313,185.24045301043526 143.93669825792313,195.8670704960823 C143.93669825792313,206.49368798172935 134.7400062026569,215.10124814510345 123.3860653936863,215.10124814510345 C112.03212458471569,215.10124814510345 102.83543252944946,206.49368798172935 102.83543252944946,195.8670704960823 z" class="" id="svg_23"/><path fill="#67e767" fill-opacity="1" stroke="#67e767" stroke-opacity="1" stroke-width="2" stroke-dasharray="none" stroke-linejoin="round" stroke-linecap="butt" stroke-dashoffset="" fill-rule="nonzero" opacity="1" marker-start="" marker-mid="" marker-end="" d="M17.012651920318604,128.3987198472023 C17.012651920318604,117.77210236155526 26.20934397558483,109.16454219818115 37.563284784555435,109.16454219818115 C48.91722559352604,109.16454219818115 58.11391764879227,117.77210236155526 58.11391764879227,128.3987198472023 C58.11391764879227,139.02533733284935 48.91722559352604,147.63289749622345 37.563284784555435,147.63289749622345 C26.20934397558483,147.63289749622345 17.012651920318604,139.02533733284935 17.012651920318604,128.3987198472023 z" class="" id="svg_6"/><path fill="#67e767" fill-opacity="1" stroke="#67e767" stroke-opacity="1" stroke-width="2" stroke-dasharray="none" stroke-linejoin="round" stroke-linecap="butt" stroke-dashoffset="" fill-rule="nonzero" opacity="1" marker-start="" marker-mid="" marker-end="" d="M87.01265573501587,231.94302183389664 C87.01265573501587,221.3164043482496 96.2093477902821,212.7088441848755 107.5632885992527,212.7088441848755 C118.9172294082233,212.7088441848755 128.11392146348953,221.3164043482496 128.11392146348953,231.94302183389664 C128.11392146348953,242.56963931954368 118.9172294082233,251.17719948291779 107.5632885992527,251.17719948291779 C96.2093477902821,251.17719948291779 87.01265573501587,242.56963931954368 87.01265573501587,231.94302183389664 z" class="" id="svg_7"/><path fill="#67e767" fill-opacity="1" stroke="#67e767" stroke-opacity="1" stroke-width="2" stroke-dasharray="none" stroke-linejoin="round" stroke-linecap="butt" stroke-dashoffset="" fill-rule="nonzero" opacity="1" marker-start="" marker-mid="" marker-end="" d="M73.46834659576416,148.14554291963577 C73.46834659576416,137.51892543398873 82.66503865103039,128.91136527061462 94.01897946000099,128.91136527061462 C105.3729202689716,128.91136527061462 114.56961232423782,137.51892543398873 114.56961232423782,148.14554291963577 C114.56961232423782,158.77216040528288 105.3729202689716,167.37972056865692 94.01897946000099,167.37972056865692 C82.66503865103039,167.37972056865692 73.46834659576416,158.77216040528288 73.46834659576416,148.14554291963577 z" class="" id="svg_8"/><path fill="#67e767" fill-opacity="1" stroke="#67e767" stroke-opacity="1" stroke-width="2" stroke-dasharray="none" stroke-linejoin="round" stroke-linecap="butt" stroke-dashoffset="" fill-rule="nonzero" opacity="1" marker-start="" marker-mid="" marker-end="" d="M-15.392423629760742,9.917709410190582 C-15.392423629760742,-0.7089080754565202 -6.195731574494516,-9.316468238830566 5.1582092344760895,-9.316468238830566 C16.512150043446695,-9.316468238830566 25.70884209871292,-0.7089080754565202 25.70884209871292,9.917709410190582 C25.70884209871292,20.544326895837685 16.512150043446695,29.15188705921173 5.1582092344760895,29.15188705921173 C-6.195731574494516,29.15188705921173 -15.392423629760742,20.544326895837685 -15.392423629760742,9.917709410190582 z" class="" id="svg_9"/><path fill="#67e767" fill-opacity="1" stroke="#67e767" stroke-opacity="1" stroke-width="2" stroke-dasharray="none" stroke-linejoin="round" stroke-linecap="butt" stroke-dashoffset="" fill-rule="nonzero" opacity="1" marker-start="" marker-mid="" marker-end="" d="M21.063284397125244,174.85440641641617 C21.063284397125244,164.22778893076907 30.25997645239147,155.62022876739502 41.613917261362076,155.62022876739502 C52.96785807033268,155.62022876739502 62.16455012559891,164.22778893076907 62.16455012559891,174.85440641641617 C62.16455012559891,185.48102390206327 52.96785807033268,194.08858406543732 41.613917261362076,194.08858406543732 C30.25997645239147,194.08858406543732 21.063284397125244,185.48102390206327 21.063284397125244,174.85440641641617 z" class="" id="svg_10"/><path fill="#67e767" fill-opacity="1" stroke="#67e767" stroke-opacity="1" stroke-width="2" stroke-dasharray="none" stroke-linejoin="round" stroke-linecap="butt" stroke-dashoffset="" fill-rule="nonzero" opacity="1" marker-start="" marker-mid="" marker-end="" d="M1.1898598670959473,216.37339931726456 C1.1898598670959473,205.74678183161745 10.386551922362173,197.1392216682434 21.74049273133278,197.1392216682434 C33.094433540303385,197.1392216682434 42.29112559556961,205.74678183161745 42.29112559556961,216.37339931726456 C42.29112559556961,227.00001680291166 33.094433540303385,235.6075769662857 21.74049273133278,235.6075769662857 C10.386551922362173,235.6075769662857 1.1898598670959473,227.00001680291166 1.1898598670959473,216.37339931726456 z" class="" id="svg_11"/></g></svg>